<svg xmlns="http://www.w3.org/2000/svg" viewBox="0 0 162 115.76"><defs><style>.cls-1{fill:#2e3d61;}</style></defs><title>AVA</title><g id="Camada_2" data-name="Camada 2"><g id="Camada_1-2" data-name="Camada 1"><path class="cls-1" d="M112.46,106.21H93.77V98.83H68.23v7.38H49.54a4.78,4.78,0,0,0,0,9.55h62.92a4.78,4.78,0,0,0,0-9.55Z"/><path class="cls-1" d="M81,40a17,17,0,0,0-11.17,4.16L81,48.3l11.17-4.19A17,17,0,0,0,81,40Z"/><path class="cls-1" d="M59.22,55.25a2.36,2.36,0,0,0,2.35,2.36h1.18V52.9H61.57A2.35,2.35,0,0,0,59.22,55.25Z"/><circle class="cls-1" cx="81" cy="28.17" r="8.24"/><path class="cls-1" d="M63.93,49.42a3,3,0,0,1,2.35,2.89v5.88a2.94,2.94,0,0,1-2.35,2.89v5.55l15.3,5.73v-21l-15.3-5.74Z"/><path class="cls-1" d="M82.77,72.36l15.3-5.74V61.08a2.94,2.94,0,0,1-2.35-2.89V52.31a3,3,0,0,1,2.35-2.89V45.67l-15.3,5.74Z"/><path class="cls-1" d="M156.49,0H5.51A5.5,5.5,0,0,0,0,5.51V87.57a5.51,5.51,0,0,0,5.51,5.51h151A5.51,5.51,0,0,0,162,87.57V5.51A5.5,5.5,0,0,0,156.49,0ZM101.6,61v6.83a1.76,1.76,0,0,1-1.14,1.65L81.62,76.57a1.88,1.88,0,0,1-1.24,0L61.54,69.5a1.76,1.76,0,0,1-1.14-1.65V61a5.89,5.89,0,0,1,0-11.54V43.12a1.76,1.76,0,0,1,2.38-1.65l3.37,1.27A20.51,20.51,0,0,1,74,37.64a11.77,11.77,0,1,1,14,0,20.51,20.51,0,0,1,7.86,5.1l3.37-1.27a1.76,1.76,0,0,1,2.38,1.65v6.36a5.89,5.89,0,0,1,0,11.54Z"/><path class="cls-1" d="M100.43,52.9H99.25v4.71h1.18a2.36,2.36,0,0,0,0-4.71Z"/></g></g></svg>