<svg xmlns="http://www.w3.org/2000/svg" viewBox="0 0 108 109.07"><defs><style>.cls-1{fill:#fff;}</style></defs><title>iconVagas</title><g id="Camada_2" data-name="Camada 2"><g id="Camada_1-2" data-name="Camada 1"><path class="cls-1" d="M96,41.48H68.49a1.6,1.6,0,1,0,0,3.19H96a1.6,1.6,0,0,0,0-3.19Z"/><path class="cls-1" d="M96,51.11H68.49a1.6,1.6,0,1,0,0,3.2H96a1.6,1.6,0,0,0,0-3.2Z"/><path class="cls-1" d="M97.63,62.34A1.6,1.6,0,0,0,96,60.74H68.49a1.6,1.6,0,0,0,0,3.2H96A1.6,1.6,0,0,0,97.63,62.34Z"/><path class="cls-1" d="M68.49,70.37a1.6,1.6,0,1,0,0,3.2H82.26a1.6,1.6,0,1,0,0-3.2Z"/><path class="cls-1" d="M105.69,18.79,89.21,2.32A7.87,7.87,0,0,0,83.62,0H29.42a7.91,7.91,0,0,0-7.9,7.9V24.26a1.6,1.6,0,1,0,3.19,0V7.9a4.71,4.71,0,0,1,4.71-4.7h54.2a4.31,4.31,0,0,1,1,.11V17.85a5.51,5.51,0,0,0,5.51,5.51h14.54a4.44,4.44,0,0,1,.12,1v76.79a4.72,4.72,0,0,1-4.71,4.71H78.63a7.2,7.2,0,0,0-.89-9.08L63.21,82.27a3.71,3.71,0,0,0-3.91-.86l-3.13-3.13a31,31,0,1,0-7.11,7.11l3.13,3.13a3.71,3.71,0,0,0,.86,3.92l13.43,13.44H29.42a4.72,4.72,0,0,1-4.71-4.71V96.05a1.6,1.6,0,1,0-3.19,0v5.12a7.9,7.9,0,0,0,7.9,7.9H100.1a7.91,7.91,0,0,0,7.9-7.9V24.38a7.91,7.91,0,0,0-2.31-5.59ZM11.32,79.87A27.8,27.8,0,1,1,52.8,77.44,28.47,28.47,0,0,1,48.21,82,27.82,27.82,0,0,1,11.32,79.87Zm40.25,3.51a31.65,31.65,0,0,0,2.59-2.59l2.63,2.63L54.2,86l-2.63-2.63Zm18.26,21.33L55.3,90.18a.54.54,0,0,1,0-.75l0,0h0l4.87-4.87a.54.54,0,0,1,.76,0L75.48,99.06a4,4,0,0,1-5.65,5.65Zm18-86.86V5.45l14.72,14.72H90.15A2.32,2.32,0,0,1,87.83,17.85Z"/><path class="cls-1" d="M66.65,10.37H35a3.44,3.44,0,0,0-3.43,3.43v6.13A3.44,3.44,0,0,0,35,23.36h31.7a3.44,3.44,0,0,0,3.43-3.43V13.8A3.44,3.44,0,0,0,66.65,10.37Zm.24,9.56a.24.24,0,0,1-.24.24H35a.24.24,0,0,1-.24-.24V13.8a.24.24,0,0,1,.24-.24h31.7a.24.24,0,0,1,.24.24v6.13Z"/><path class="cls-1" d="M48.4,77.62A24.63,24.63,0,1,0,6.64,56.46,1.6,1.6,0,1,0,9.8,57,21.43,21.43,0,1,1,47.11,74.32,6.92,6.92,0,0,0,43.65,71a31.49,31.49,0,0,0-7.16-1.63v-2a9.37,9.37,0,0,0,3.71-6.08,2.82,2.82,0,0,0,1.75-2.63c0-2.12,0-5.63,0-7.67a3.91,3.91,0,0,0-3.25-3.86A3.92,3.92,0,0,0,34.83,44H27.12a7.21,7.21,0,0,0-7.21,7.21v7.51a2.81,2.81,0,0,0,1.72,2.59,9.4,9.4,0,0,0,3.54,6v2.2A31.13,31.13,0,0,0,18,71.15a6.76,6.76,0,0,0-3.24,3.09A21.19,21.19,0,0,1,9.87,63.9a1.6,1.6,0,0,0-3.15.55A24.64,24.64,0,0,0,48.4,77.62ZM27.12,47.2h7.71a.72.72,0,0,1,.72.72,2.39,2.39,0,0,0,2.38,2.38H38a.72.72,0,0,1,.72.72v.86l-1.93-.19A9,9,0,0,0,31.35,53a5.69,5.69,0,0,1-3,.83H23.1V51.21a4,4,0,0,1,4-4Zm-4,11.18V57h5.3A8.78,8.78,0,0,0,33,55.68a5.67,5.67,0,0,1,3.48-.8l2.23.2c0,1,0,2.29,0,3.29a2,2,0,0,0-1.64,1.84,6.2,6.2,0,0,1-12.38,0,2,2,0,0,0-1.62-1.83Zm7.82,10.85a9.28,9.28,0,0,0,2.37-.31v.89A2.66,2.66,0,0,0,33.56,71a4.88,4.88,0,0,1-2.72.84h0a4.92,4.92,0,0,1-2.7-.81,2.74,2.74,0,0,0,.26-1.17v-1a9.75,9.75,0,0,0,2.55.35ZM17.29,76.69a3.63,3.63,0,0,1,2.05-2.63,25.51,25.51,0,0,1,5.82-1.37A8,8,0,0,0,30.82,75h0a8.05,8.05,0,0,0,5.69-2.35A25.25,25.25,0,0,1,42.37,74a3.62,3.62,0,0,1,2.2,2.81,21.47,21.47,0,0,1-27.28-.09Z"/></g></g></svg>