<?xml version="1.0" encoding="utf-8"?>
<!-- Generator: Adobe Illustrator 23.0.1, SVG Export Plug-In . SVG Version: 6.00 Build 0)  -->
<svg version="1.1" id="Camada_1" xmlns="http://www.w3.org/2000/svg" xmlns:xlink="http://www.w3.org/1999/xlink" x="0px" y="0px"
	 viewBox="0 0 270.4 124.4" style="enable-background:new 0 0 270.4 124.4;" xml:space="preserve">
<style type="text/css">
	.st0{fill:#353C5B;}
	.st1{fill:#EEEADD;}
	.st2{fill:#FBF9F5;}
	.st3{fill:#F7F4ED;}
	.st4{fill:#439AB8;}
	.st5{fill:#363C5B;}
	.st6{fill:#D9D8CC;}
	.st7{fill:#D4D5C8;}
	.st8{fill:#D7D6C9;}
	.st9{fill:#D3D4C8;}
	.st10{fill:#D0D2C7;}
	.st11{fill:#D1D5C8;}
	.st12{fill:#D4D4C9;}
	.st13{fill:#E6E0CF;}
	.st14{fill:#DFDACC;}
	.st15{fill:#D6D7C9;}
	.st16{fill:#D3D6CA;}
	.st17{fill:#D0D4C8;}
	.st18{fill:#CED1C6;}
	.st19{fill:#D6D2C6;}
	.st20{fill:#D2D5C9;}
	.st21{fill:#D0D0C7;}
	.st22{fill:#CCCDC4;}
	.st23{fill:#CFD1C6;}
	.st24{fill:#CFD2C7;}
	.st25{fill:#CFCDC3;}
	.st26{fill:#D4D5C9;}
	.st27{fill:#D1D2C7;}
	.st28{fill:#D3D3C7;}
	.st29{fill:#C9CEC6;}
	.st30{fill:#C5CAC2;}
	.st31{fill:#D0D3C8;}
	.st32{fill:#CCD1C8;}
	.st33{fill:#D5D5C8;}
	.st34{fill:#D1D4C8;}
	.st35{fill:#D3D2C7;}
	.st36{fill:#CBD2C7;}
	.st37{fill:#D1D5C9;}
	.st38{fill:#CDD1C6;}
	.st39{fill:#CED2C8;}
	.st40{fill:#CCD0C6;}
	.st41{fill:#D5D7CA;}
	.st42{fill:#C3C9C2;}
	.st43{fill:#C0C4BE;}
	.st44{fill:#CDCEC5;}
	.st45{fill:#C9D0C7;}
	.st46{fill:#C8C8C0;}
	.st47{fill:#D5D2C6;}
	.st48{fill:#C9CEC5;}
	.st49{fill:#D2D1C6;}
	.st50{fill:#D3CEC3;}
	.st51{fill:#C9CCC2;}
	.st52{fill:#D1D0C5;}
	.st53{fill:#D3D2C6;}
	.st54{fill:#D2CEC3;}
	.st55{fill:#C7CEC5;}
	.st56{fill:#C9CDC4;}
	.st57{fill:#CACFC5;}
	.st58{fill:#CDD1C7;}
	.st59{fill:#C5C8C1;}
	.st60{fill:#CBCFC6;}
	.st61{fill:#D5D4C7;}
	.st62{fill:#CDD5CB;}
	.st63{fill:#CDCFC4;}
	.st64{fill:#CACEC5;}
	.st65{fill:#C8CBC3;}
	.st66{fill:#CBC8BF;}
	.st67{fill:#CBCEC4;}
	.st68{fill:#DAD8C9;}
	.st69{fill:#CFD1C7;}
	.st70{fill:#CED1C7;}
	.st71{fill:#C9CEC4;}
	.st72{fill:#D8D6C9;}
	.st73{fill:#CDCCC2;}
	.st74{fill:#D4CFC4;}
	.st75{fill:#CDD0C6;}
	.st76{fill:#CDCFC5;}
	.st77{fill:#CCCEC4;}
	.st78{fill:#CBCDC4;}
	.st79{fill:#CED4C9;}
	.st80{fill:#BCBAB4;}
	.st81{fill:#DDDBCC;}
	.st82{fill:#CCCFC6;}
	.st83{fill:#D3D1C6;}
	.st84{fill:#CECDC3;}
	.st85{fill:#C6CDC6;}
	.st86{fill:#CCCCC4;}
	.st87{fill:#CFD0C5;}
	.st88{fill:#D6D5C9;}
	.st89{fill:#C8CDC4;}
	.st90{fill:#C6CBC3;}
	.st91{fill:#CFCBC0;}
	.st92{fill:#CCCAC2;}
	.st93{fill:#C3C6BE;}
	.st94{fill:#CFD5CA;}
	.st95{fill:#E3DECE;}
	.st96{fill:#D6D1C5;}
	.st97{fill:#CAD4C9;}
	.st98{fill:#D8D5C8;}
	.st99{fill:#E0DACB;}
	.st100{fill:#D0D0C5;}
	.st101{fill:#C2C6BF;}
	.st102{fill:#D3D7CA;}
	.st103{fill:#C7C7BF;}
	.st104{fill:#C5C9C2;}
	.st105{fill:#D1CDC2;}
	.st106{fill:#C5CFC6;}
	.st107{fill:#D2D7CC;}
	.st108{fill:#CCCBC1;}
	.st109{fill:#CFCFC5;}
	.st110{fill:#C2C9C2;}
	.st111{fill:#D9D5C8;}
	.st112{fill:#DFDCCD;}
	.st113{fill:#D5D0C4;}
	.st114{fill:#AECDCA;}
	.st115{fill:#D0D6CA;}
	.st116{fill:#C4C6BE;}
	.st117{fill:#CBCDC3;}
	.st118{fill:#CDCEC4;}
	.st119{fill:#CACAC1;}
	.st120{fill:#BFBDB7;}
	.st121{fill:#C3CDC5;}
	.st122{fill:#D4D1C6;}
	.st123{fill:#D0CCC2;}
	.st124{fill:#BEC1BC;}
	.st125{fill:#D8D8CB;}
	.st126{fill:#C5CCC4;}
	.st127{fill:#D1CFC4;}
	.st128{fill:#C3CAC3;}
	.st129{fill:#BDC4BE;}
	.st130{fill:#C3CEC7;}
	.st131{fill:#D8D7CA;}
	.st132{fill:#CFCCC2;}
	.st133{fill:#D8D4C7;}
	.st134{fill:#D9D9CD;}
	.st135{fill:#CED4C8;}
	.st136{fill:#D5D4C8;}
	.st137{fill:#BBC3BE;}
	.st138{fill:#C0CAC5;}
	.st139{fill:#CDC9BF;}
	.st140{fill:#C7C3BC;}
	.st141{fill:#C9C7C0;}
	.st142{fill:#DCD8CA;}
	.st143{fill:#B4BDBA;}
	.st144{fill:#C7CDC4;}
	.st145{fill:#CDD3C9;}
	.st146{fill:#C7CBC3;}
	.st147{fill:#CBD0C7;}
	.st148{fill:#C5C1BB;}
	.st149{fill:#B5BDBA;}
	.st150{fill:#DDDBCD;}
	.st151{fill:#C2CCC4;}
	.st152{fill:#BFCBC4;}
	.st153{fill:#D0CFC5;}
	.st154{fill:#B8C7C2;}
	.st155{fill:#C1BDB7;}
	.st156{fill:#BCC1BC;}
	.st157{fill:#B8C3BF;}
	.st158{fill:#C4CBC3;}
	.st159{fill:#BDC7C1;}
	.st160{fill:#D9DED0;}
	.st161{fill:#DBDCCE;}
	.st162{fill:#BDCAC3;}
	.st163{fill:#E3E1D1;}
	.st164{fill:#C1BFB7;}
	.st165{fill:#B6D2CD;}
	.st166{fill:#C8D0C7;}
	.st167{fill:#E3DFCF;}
	.st168{fill:#BAD3CC;}
	.st169{fill:#CBC7BE;}
	.st170{fill:#C0C1BA;}
	.st171{fill:#E4DFCE;}
	.st172{fill:#3E4561;}
</style>
<title>Logo</title>
<g>
	<g id="Camada_1-2">
	</g>
</g>
<g>
	<g>
		<path class="st0" d="M207.6,65.3c0.5-1.3,1-2.5,1.5-3.7c0.9-2.4,1.9-4.8,2.5-7.3c0.1-0.5,0.4-0.7,0.9-0.6c1.5,0.2,3-0.1,4.5-0.1
			c0.3,0,0.6-0.1,0.7,0.4c0,0.4,0,0.7-0.6,0.8c-0.9,0.1-1.1,0.4-1.1,1.3c0.1,3.1,0.3,6.1,0.4,9.2c0.1,1.3,0.1,2.5,0.3,3.8
			c0.1,0.8,0.5,1.4,1.3,1.6c0.6,0.1,0.7,0.5,0.6,0.9c-0.1,0.5-0.5,0.3-0.8,0.3c-2-0.2-3.9-0.2-5.9,0c-0.4,0-0.9,0.2-1-0.4
			c-0.1-0.4,0-0.7,0.5-0.8c1.4-0.4,1.6-0.7,1.5-2.2c-0.1-2.5-0.2-4.9-0.3-7.4c0-0.6-0.1-1.1-0.3-1.7c-0.2,0.4-0.3,0.8-0.5,1.2
			c-1.3,3.3-2.7,6.7-4,10c-0.1,0.2-0.1,0.4-0.2,0.6c-0.2,0.4-0.5,0.8-1,0.8c-0.5,0-0.6-0.5-0.7-0.8c-1.7-3.8-3.4-7.6-5.1-11.4
			c-0.1-0.2-0.1-0.4-0.3-0.6c-0.2,0.1-0.2,0.3-0.2,0.4c-0.1,2.6-0.2,5.2-0.3,7.8c0,0.6-0.1,1.3-0.1,1.9c0,0.5,0.2,0.8,0.7,1
			c0.5,0.2,1.1,0.4,1.6,0.5c0.5,0.1,0.6,0.4,0.5,0.8c0,0.5-0.4,0.5-0.7,0.4c-2.1-0.2-4.2-0.3-6.3,0c-0.3,0-0.6,0-0.7-0.4
			c-0.1-0.4,0.1-0.7,0.5-0.8c2.5-0.7,2.3-0.7,2.4-3.1c0.2-3.8,0.3-7.6,0.4-11.5c0-1,0-1-1-1.2c-0.2,0-0.4-0.1-0.7-0.1
			c-0.4-0.1-0.5-0.4-0.5-0.7c0-0.4,0.3-0.4,0.6-0.4c1.7,0.1,3.3,0.2,5,0c0.5-0.1,0.7,0.2,0.9,0.6c1.6,3.5,3.1,7.1,4.7,10.6
			C207.5,64.9,207.5,65,207.6,65.3z"/>
		<path class="st0" d="M161.7,79.7c2.2,0.1,3.7-0.1,5.3,0.1c1.3,0.2,2.6,0.6,3.6,1.4c1.8,1.4,2.1,4,0.7,6.1
			c-0.5,0.8-1.2,1.5-2.1,1.9c-0.3,0.1-0.5,0.3-0.3,0.7c1.3,2.1,2.5,4.2,4.4,5.9c0.6,0.5,1.2,0.9,2,1c0.4,0.1,0.5,0.3,0.5,0.7
			c0,0.4-0.2,0.6-0.6,0.6c-3.1,0.1-5.7-0.6-7.5-3.4c-0.8-1.3-1.7-2.6-2.5-3.9c-0.1-0.2-0.2-0.3-0.4-0.5c-0.2-0.2-0.4-0.5-0.7-0.3
			c-0.3,0.1-0.2,0.4-0.2,0.7c0,1.6-0.1,3.2,0.1,4.9c0.1,0.7,0.4,1.1,1.1,1.2c0.3,0,0.5,0.1,0.8,0.1c0.4,0,0.5,0.3,0.5,0.7
			c0,0.4-0.2,0.5-0.6,0.5c-0.3,0-0.7,0-1,0c-2-0.2-4,0-6.1,0c-0.3,0-0.7,0.1-0.8-0.5c0-0.5,0.2-0.7,0.6-0.8c1.3-0.3,1.4-0.4,1.4-1.7
			c0-4.2,0-8.3,0-12.5c0-1.1-0.2-1.3-1.3-1.7c-0.2-0.1-0.6-0.1-0.7-0.3c-0.1-0.2-0.1-0.5-0.1-0.7c0.1-0.3,0.3-0.2,0.6-0.2
			C159.7,79.7,161,79.7,161.7,79.7z M163.9,85.4c0,0.5,0,1.1,0,1.8c0,0.4,0.1,0.7,0.5,0.9c1.1,0.5,2.6,0,3.1-1.1
			c0.5-1.3,0.5-2.6,0.1-3.9c-0.4-1.3-1.5-1.9-2.8-1.7c-0.5,0.1-0.7,0.3-0.8,0.8C163.9,83.3,163.9,84.3,163.9,85.4z"/>
		<path class="st0" d="M105.4,84c0,0.7,0,1.4,0,2.1c0,2.6,0,5.1,0,7.7c0,0.2,0,0.5,0,0.7c0.1,1.6,0.3,1.9,2,2.2
			c0.4,0.1,0.8,0.1,0.8,0.7c0,0.4-0.1,0.6-0.5,0.6c-0.7,0-1.4-0.1-2.2-0.1c-1.3-0.1-2.6,0-3.9,0.1c-0.3,0-0.7,0.1-0.7-0.4
			c0-0.5,0.2-0.7,0.6-0.7c1.5-0.2,2-0.8,2-2.3c0-3.9,0-7.7,0-11.6c0-1.5-0.2-1.7-1.7-1.9c-0.2,0-0.4-0.1-0.5-0.1
			c-0.4-0.1-0.4-0.4-0.4-0.7c0-0.3,0.3-0.4,0.6-0.4c1.2,0.1,2.3,0.2,3.5,0.1c0.6,0,1.3,0,1.9-0.1c0.5-0.1,0.7,0.1,1,0.5
			c2.4,3.7,5.4,6.9,8.1,10.4c0,0,0,0,0.1,0c0.2-0.2,0.1-0.4,0.1-0.6c0-2.3,0-4.5,0-6.8c0-1.5-0.2-1.8-1.7-2.2
			c-0.1,0-0.3-0.1-0.4-0.1c-0.5-0.1-0.5-0.4-0.5-0.8c0.1-0.4,0.4-0.4,0.7-0.4c1.5,0.2,3.1,0.1,4.7,0.1c0.4,0,0.9-0.1,1.3-0.1
			c0.4,0,0.6,0.1,0.6,0.5c0,0.4-0.1,0.6-0.5,0.6c-0.1,0-0.1,0-0.2,0c-1.6,0.3-2,0.9-2.1,2.5c0,1.7,0,3.5,0,5.2
			c0,2.8-0.1,5.6,0.1,8.4c0,0.4,0.2,0.9-0.3,1.1c-0.6,0.2-1-0.1-1.3-0.5c-1.2-1.5-2.3-2.9-3.5-4.4c-2.4-3-4.8-6-7.2-9
			c-0.1-0.1-0.1-0.2-0.1-0.2C105.5,84,105.5,84,105.4,84z"/>
		<path class="st0" d="M128.2,64.5c0-1.3,0-2.6,0-3.8c0-1.2,0-2.3,0-3.5c0-1.6-0.3-1.9-1.8-2.3c-0.2,0-0.3-0.1-0.5-0.1
			c-0.4-0.1-0.4-0.5-0.4-0.8c0-0.4,0.3-0.4,0.6-0.4c2,0.2,4,0.2,6.1,0c0.3,0,0.6,0,0.7,0.4c0,0.4-0.1,0.7-0.6,0.7
			c-1.7,0.2-2.1,0.8-2.2,2.4c0,4.4,0,8.8,0,13.2c0,0.2,0,0.5,0,0.7c0,0.3,0.1,0.6-0.2,0.7c-0.3,0.1-0.6,0.1-0.9,0
			c-0.3-0.2-0.5-0.4-0.7-0.6c-3.4-4.3-6.9-8.5-10.3-12.8c-0.1-0.2-0.2-0.4-0.5-0.5c-0.2,0.2-0.1,0.5-0.1,0.7c0,3.2,0,6.3,0,9.5
			c0,1.9,0.3,2.2,2.1,2.6c0.3,0.1,0.5,0.1,0.6,0.4c0.2,0.6,0,0.9-0.6,0.9c-2-0.2-4.1-0.3-6.1,0c-0.3,0-0.6-0.1-0.6-0.5
			c0-0.4,0-0.7,0.5-0.7c0.2,0,0.3,0,0.5-0.1c1.2-0.2,1.7-0.8,1.7-2c0-4.1,0-8.1,0-12.2c0-1.2-0.4-1.5-1.9-1.7c-0.2,0-0.5,0-0.7-0.2
			c-0.2-0.2-0.2-0.5-0.1-0.8c0.1-0.3,0.3-0.2,0.6-0.2c1.8,0.1,3.7,0.3,5.5,0c0.3,0,0.5,0,0.7,0.3c1.9,3,4.2,5.6,6.4,8.3
			c0.6,0.8,1.2,1.5,1.8,2.3C128.1,64.5,128.1,64.5,128.2,64.5z"/>
		<path class="st0" d="M177.8,88.9c0-3.9,2.4-7.5,5.8-8.8c4.5-1.7,9.5,0.7,11.3,5.4c1.6,4,0.2,8.7-3.4,11.2
			c-3.6,2.6-8.6,1.9-11.5-1.5C178.5,93.3,177.8,91.3,177.8,88.9z M191,89.4c0-0.5,0-0.9,0-1.4c-0.1-1.7-0.4-3.4-1.4-4.9
			c-0.8-1.3-2.1-1.9-3.6-1.8c-1.5,0.1-2.4,1.1-3,2.3c-0.2,0.4-0.3,0.8-0.4,1.3c-0.4,1.7-0.5,3.5-0.3,5.3c0.2,1.7,0.6,3.3,1.6,4.7
			c0.9,1.2,2.1,1.8,3.7,1.6c1.3-0.2,2.1-1.1,2.6-2.2C190.9,92.7,191.1,91.1,191,89.4z"/>
		<path class="st0" d="M193,62.8c0,3.9-2.4,7.5-5.9,8.8c-5.2,1.9-11-1.6-11.7-7.2c-0.5-3.4,0.4-6.4,3-8.7c4-3.6,9.8-2.8,12.9,1.6
			C192.4,58.9,193,60.7,193,62.8z M179.7,62.1c0,0.5,0,0.9,0,1.4c0.2,1.8,0.5,3.5,1.5,5c0.8,1.3,2,2,3.6,1.9
			c1.5-0.1,2.4-1.1,2.9-2.5c0.9-2.2,0.9-4.5,0.7-6.8c-0.1-1.2-0.4-2.4-0.9-3.4c-0.8-1.6-2-2.5-3.8-2.5c-1.7,0-2.6,1.1-3.3,2.5
			c-0.1,0.2-0.2,0.5-0.3,0.8C179.8,59.6,179.7,60.8,179.7,62.1z"/>
		<path class="st0" d="M260.6,58.7c0,0.8,0,1.6,0,2.4c0,0.5,0.2,0.8,0.7,0.8c0.9,0,1.8,0,2.6,0c1-0.1,1-0.1,1.2-1.1
			c0.1-0.4,0.2-0.8,0.8-0.7c0.3,0,0.5,0.2,0.5,0.5c0,1.5,0,3,0,4.5c0,0.3-0.1,0.5-0.4,0.5c-0.3,0-0.5,0-0.7-0.3
			c-0.1-0.1-0.1-0.3-0.2-0.4c-0.4-1.1-0.5-1.2-1.7-1.3c-0.7,0-1.4,0-2.2,0c-0.5,0-0.7,0.2-0.7,0.7c0,1.6,0,3.2,0,4.7
			c0,0.9,0.3,1.1,1.2,1.2c1,0,2.1,0.1,3.1-0.1c1.4-0.3,2.4-1.1,3.1-2.4c0.1-0.3,0.2-0.6,0.7-0.7c0.8-0.1,1,0.1,0.7,0.9
			c-0.4,1.2-0.8,2.4-1.2,3.7c-0.1,0.5-0.5,0.5-0.9,0.5c-1.5-0.1-3.1-0.1-4.6-0.1c-2.4,0-4.8-0.1-7.2,0.1c-0.2,0-0.4,0-0.5,0
			c-0.3,0-0.5-0.2-0.5-0.5c0-0.3,0-0.6,0.4-0.7c0.2-0.1,0.5-0.1,0.7-0.1c0.6-0.1,0.9-0.4,0.9-1.1c0-4.5,0-8.9,0-13.4
			c0-0.6-0.3-1-0.8-1.2c-0.2-0.1-0.3-0.1-0.5-0.2c-0.5-0.1-0.8-0.3-0.7-0.9c0.1-0.5,0.5-0.4,0.8-0.4c2.2,0.2,4.4,0.1,6.5,0.1
			c1.6,0,3.3-0.1,4.9-0.1c0.6,0,0.8,0.2,0.9,0.7c0.1,1,0.4,1.9,0.6,2.8c0.1,0.3,0.2,0.6-0.2,0.7c-0.4,0.1-0.7,0.1-0.9-0.3
			c-0.2-0.2-0.3-0.5-0.5-0.7c-1-1.1-2.2-1.7-3.7-1.7c-2.6,0.1-2.2,0-2.3,2.3C260.6,57.9,260.6,58.3,260.6,58.7z"/>
		<path class="st0" d="M128.8,79.7c2.1-0.1,4.2,0.1,6.3-0.1c0.5,0,0.7,0.1,0.8,0.6c0.2,1,0.4,2,0.6,3c0.1,0.3,0.2,0.6-0.2,0.7
			c-0.3,0.1-0.7,0.1-0.9-0.2c-0.2-0.3-0.4-0.6-0.6-0.9c-1.5-1.6-3.4-1.8-5.4-1.4c-0.4,0.1-0.5,0.4-0.5,0.7c0,1.8,0,3.6,0,5.3
			c0,0.4,0.2,0.5,0.5,0.5c1.1,0,2.3,0,3.4,0c0.5,0,0.5-0.4,0.6-0.7c0.1-0.5,0-1.2,0.8-1.1c0.8,0.1,0.5,0.8,0.5,1.2
			c0,1.2,0,2.4,0,3.6c0,0.3,0,0.7-0.4,0.7c-0.4,0-0.7-0.1-0.8-0.5c-0.2-1.4-1.2-1.5-2.3-1.5c-0.6,0-1.2,0-1.8,0.1
			c-0.4,0.1-0.5,0.2-0.5,0.6c0,1.5,0,3.1,0,4.6c0,1.1,0.2,1.3,1.3,1.4c1.1,0.1,2.3,0,3.4-0.3c1.1-0.3,2-1,2.6-2.1
			c0.1-0.2,0.2-0.4,0.3-0.6c0.3-0.5,0.7-0.5,1.1-0.3c0.5,0.2,0.2,0.5,0.1,0.8c-0.4,1.2-0.8,2.3-1.1,3.5c-0.1,0.5-0.4,0.7-0.9,0.7
			c-2.7-0.1-5.3-0.1-8-0.1c-1.4,0-2.7,0.1-4.1,0.1c-0.4,0-0.7,0-0.8-0.5c0-0.5,0.2-0.6,0.6-0.7c1.3-0.3,1.3-0.3,1.4-1.6
			c0.2-2.7,0.1-5.4,0.1-8c0-1.6,0-3.1-0.1-4.7c0-0.9-0.4-1.4-1.3-1.5c-0.1,0-0.3-0.1-0.4-0.1c-0.4-0.1-0.4-0.5-0.4-0.8
			c0-0.4,0.3-0.4,0.6-0.4C125.1,79.7,126.9,79.7,128.8,79.7z"/>
		<path class="st0" d="M203.5,89.2c0.1,1.9-0.1,3.9,0.1,5.8c0.1,1.5,0.1,1.5,1.7,1.8c0.4,0.1,0.7,0.2,0.7,0.6c0,0.4-0.1,0.6-0.5,0.5
			c-0.1,0-0.2,0-0.3,0c-2.3-0.2-4.6-0.1-6.9,0c-0.4,0-0.7,0.1-0.8-0.5c0-0.5,0.2-0.6,0.7-0.7c1.3-0.3,1.4-0.4,1.4-1.7
			c0-4.1,0-8.2,0-12.3c0-1.4-0.1-1.5-1.4-2c-0.2-0.1-0.4-0.1-0.5-0.2c-0.2-0.2-0.1-0.5-0.1-0.8c0.1-0.3,0.3-0.2,0.5-0.2
			c2.5,0,5,0,7.4,0c1.3,0,2.6,0.3,3.8,0.9c2.9,1.6,3.1,4.8,1.7,6.9c-1.4,2.2-4.2,3.3-6.2,2.6c-0.5-0.2-0.9-0.4-0.9-1.1
			c0-0.3,0.1-0.5,0.5-0.4c0.2,0,0.4,0.1,0.5,0.1c1.1,0.2,1.9-0.3,2.3-1.3c0.5-1.5,0.5-3,0-4.4c-0.4-1.1-1.3-1.6-2.5-1.5
			c-0.8,0.1-1,0.3-1,1.1C203.5,84.7,203.6,86.9,203.5,89.2z"/>
		<path class="st0" d="M247.1,92.2c-0.7,0-1.5,0-2.2,0c-0.4,0-0.6,0.2-0.7,0.5c-0.3,0.8-0.6,1.5-0.9,2.2c-0.5,1.3-0.3,1.8,1.1,1.9
			c0.3,0,0.6,0.1,0.7,0.5c0,0.4-0.1,0.7-0.6,0.6c-0.6,0-1.2-0.1-1.8-0.1c-1.2-0.1-2.4,0.1-3.6,0.1c-0.3,0-0.6,0-0.7-0.4
			c0-0.4,0.1-0.7,0.5-0.8c1.1-0.2,1.7-0.9,2.2-1.9c2-4.8,4.1-9.5,6.2-14.3c0.1-0.2,0.2-0.5,0.3-0.7c0.5-0.6,1.3-0.6,1.7,0.2
			c0.2,0.5,0.4,1,0.6,1.5c1.9,4.7,3.8,9.3,5.6,14c0.3,0.8,0.9,1.1,1.6,1.2c0.5,0.1,0.7,0.3,0.6,0.7c-0.1,0.6-0.5,0.5-0.8,0.4
			c-1.4-0.1-2.8-0.2-4.3-0.1c-0.9,0-1.8,0.1-2.6,0.1c-0.4,0-0.7,0-0.7-0.5c0-0.5,0.2-0.7,0.6-0.7c0.2,0,0.4-0.1,0.6-0.2
			c0.7-0.3,0.8-0.5,0.6-1.2c-0.3-0.9-0.7-1.8-1.1-2.7c-0.2-0.5-0.4-0.6-0.9-0.6C248.6,92.2,247.9,92.2,247.1,92.2
			C247.1,92.2,247.1,92.2,247.1,92.2z M247.4,85.9c-0.1,0-0.1,0-0.2,0c-0.6,1.3-1.2,2.7-1.8,4.1c-0.1,0.3,0.1,0.4,0.3,0.4
			c1,0,1.9,0,2.9,0c0.3,0,0.5-0.1,0.3-0.5C248.5,88.5,247.9,87.2,247.4,85.9z"/>
		<path class="st0" d="M100.3,66.1c-0.7,0-1.5,0-2.2,0c-0.4,0-0.6,0.1-0.8,0.5c-0.3,0.8-0.7,1.5-0.9,2.2c-0.5,1.3-0.3,1.8,1.1,1.9
			c0.5,0.1,0.6,0.3,0.6,0.8c0,0.3-0.2,0.5-0.5,0.4c-0.7-0.1-1.4-0.1-2.2-0.2c-1.1-0.1-2.2,0.1-3.3,0.2c-0.3,0-0.6,0-0.7-0.4
			c-0.1-0.4,0-0.7,0.5-0.8c1.2-0.2,1.8-0.9,2.3-2c1.9-4.5,3.9-8.9,5.8-13.4c0.2-0.4,0.4-0.8,0.5-1.2c0.2-0.5,0.6-0.8,1.1-0.7
			c0.5,0,0.7,0.4,0.9,0.8c1.7,4.2,3.4,8.5,5.1,12.7c0.3,0.8,0.7,1.5,0.9,2.3c0.3,1,0.9,1.4,1.8,1.5c0.4,0,0.6,0.2,0.6,0.6
			c0,0.4-0.1,0.6-0.6,0.6c-2.4-0.3-4.8-0.2-7.2,0c-0.3,0-0.6-0.1-0.6-0.5c0-0.4,0-0.7,0.5-0.7c0,0,0.1,0,0.1,0
			c1.3-0.3,1.5-0.5,1-1.8c-0.3-0.8-0.6-1.5-0.9-2.3c-0.2-0.5-0.5-0.7-1-0.7C101.6,66.2,101,66.1,100.3,66.1z M100.5,59.8
			c-0.1,0-0.1,0-0.2,0c-0.6,1.4-1.2,2.7-1.8,4.1c-0.1,0.3,0.1,0.3,0.3,0.4c0.9,0.1,1.9,0.1,2.8,0.1c0.5,0,0.6-0.3,0.4-0.7
			c-0.2-0.4-0.4-0.9-0.6-1.4C101.1,61.4,100.8,60.6,100.5,59.8z"/>
		<path class="st0" d="M143.5,66c-0.7,0-1.4,0-2.2,0c-0.4,0-0.6,0.2-0.8,0.5c-0.3,0.8-0.7,1.6-1,2.4c-0.5,1.2-0.2,1.6,1.1,1.8
			c0.4,0,0.7,0.1,0.7,0.6c0,0.4-0.1,0.7-0.6,0.6c-1.8-0.2-3.5-0.3-5.3,0c-0.3,0-0.6,0-0.7-0.4c-0.1-0.4,0-0.7,0.5-0.8
			c1.3-0.2,1.9-1.1,2.4-2.2c1.9-4.5,3.9-9,5.9-13.5c0.1-0.3,0.3-0.7,0.5-1c0.2-0.4,0.5-0.7,1-0.7c0.5,0,0.7,0.3,0.9,0.8
			c1.5,3.8,3.1,7.7,4.7,11.5c0.5,1.2,1,2.4,1.4,3.6c0.3,0.9,0.8,1.3,1.7,1.4c0.5,0.1,0.8,0.3,0.7,0.8c-0.1,0.6-0.5,0.4-0.8,0.4
			c-2.2-0.2-4.4-0.2-6.6,0c-0.8,0.1-1-0.1-1-0.6c0-0.3,0.1-0.5,0.5-0.6c0.1,0,0.3,0,0.4-0.1c1-0.2,1.2-0.5,0.8-1.5
			c-0.3-0.9-0.7-1.8-1-2.6c-0.2-0.4-0.4-0.5-0.8-0.5C145,66,144.3,66,143.5,66C143.5,66,143.5,66,143.5,66z M143.8,59.6
			c-0.1,0-0.1,0-0.2,0c-0.6,1.3-1.2,2.7-1.7,4c-0.1,0.3,0,0.5,0.3,0.5c1,0,1.9,0,2.9,0c0.3,0,0.5-0.2,0.3-0.5
			C144.9,62.3,144.3,61,143.8,59.6z"/>
		<path class="st0" d="M239.5,66c-0.7,0-1.4,0-2.2,0c-0.4,0-0.6,0.1-0.8,0.5c-0.3,0.8-0.7,1.6-1,2.4c-0.5,1.2-0.2,1.6,1.1,1.8
			c0.5,0.1,0.8,0.1,0.8,0.7c0,0.4-0.2,0.6-0.6,0.5c-1.8-0.2-3.6-0.3-5.4,0c-0.3,0-0.6,0-0.6-0.4c0-0.4,0-0.7,0.4-0.8
			c1.4-0.2,2-1.2,2.5-2.3c1.9-4.6,3.9-9.1,5.9-13.6c0.1-0.2,0.2-0.4,0.3-0.6c0.2-0.5,0.6-0.8,1.1-0.8c0.5,0,0.7,0.4,0.9,0.9
			c1.4,3.4,2.7,6.7,4.1,10.1c0.7,1.6,1.4,3.3,2,5c0.3,0.8,0.8,1.3,1.7,1.4c0.5,0.1,0.8,0.3,0.7,0.8c-0.1,0.6-0.5,0.5-0.9,0.4
			c-2.2-0.2-4.3-0.2-6.5,0c-0.2,0-0.4,0-0.6,0c-0.3,0-0.4-0.3-0.5-0.6c0-0.3,0-0.6,0.4-0.6c0.2,0,0.4-0.1,0.7-0.1
			c0.9-0.2,1-0.5,0.7-1.4c-0.3-0.9-0.7-1.7-1-2.6c-0.2-0.5-0.5-0.7-1.1-0.7C240.9,66,240.2,66,239.5,66C239.5,66,239.5,66,239.5,66z
			 M239.8,59.7c-0.1,0-0.1,0-0.2,0c-0.6,1.4-1.2,2.7-1.8,4.1c-0.1,0.3,0.1,0.5,0.4,0.5c0.9,0,1.9,0,2.8,0c0.4,0,0.5-0.2,0.3-0.5
			C240.9,62.3,240.3,61,239.8,59.7z"/>
		<path class="st0" d="M225.7,93c0.2,2.8-2.4,4.7-4.8,5.1c-2.1,0.4-4.1-0.1-6.1-0.5c-0.3-0.1-0.4-0.3-0.4-0.5
			c-0.3-1.3-0.4-2.5-0.5-3.8c0-0.4,0.1-0.6,0.5-0.7c0.4,0,0.9-0.1,1.1,0.5c0.3,1,0.9,1.9,1.7,2.6c0.8,0.7,1.7,1,2.7,0.8
			c0.8-0.1,1.5-0.6,1.7-1.4c0.3-0.9,0.4-1.9-0.3-2.7c-0.7-0.8-1.6-1.3-2.5-1.9c-1.2-0.7-2.3-1.5-3.3-2.4c-1.9-1.6-2-5.2,0.3-7
			c2-1.5,4.2-1.8,6.5-1.2c0.2,0.1,0.4,0.1,0.7,0.2c1.7,0.4,1.7,0.4,1.8,2.2c0.1,0.7,0.1,1.5,0.1,2.2c0,0.4,0.1,0.8-0.5,0.9
			c-0.5,0-0.9,0-1-0.7c-0.2-0.9-0.6-1.6-1.2-2.3c-0.7-0.8-1.6-1.1-2.7-0.9c-1.5,0.2-2.2,2.2-1.2,3.6c0.5,0.7,1.2,1.1,1.8,1.6
			c1,0.7,2.1,1.3,3.1,2C225,89.6,225.7,90.8,225.7,93z"/>
		<path class="st0" d="M144.2,88.4c-0.1,2,0.3,4,1.4,5.7c1.5,2.5,4.7,3.2,7.1,1.5c0.8-0.6,1.3-1.4,1.6-2.4c0.2-0.7,0.8-0.8,1.4-0.5
			c0.3,0.1,0.2,0.4,0.2,0.6c-0.2,1.1-0.4,2.2-0.8,3.2c-0.1,0.3-0.3,0.5-0.5,0.6c-2.6,0.9-5.2,1.4-8,0.8c-4.3-1-7.3-5.4-6.8-9.7
			c0.4-3.3,1.9-5.9,4.8-7.6c1.9-1.1,4-1.1,6.1-1c1.3,0.1,2.6,0.3,3.9,0.6c0.5,0.1,0.8,0.4,0.8,0.9c0.1,1,0.2,2,0.3,3
			c0,0.4,0,0.7-0.5,0.8c-0.4,0.1-0.8,0-1-0.5c-1.2-3-4.4-3.6-6.6-3c-1.5,0.4-2.4,1.5-2.9,2.9C144.3,85.7,144.1,87,144.2,88.4z"/>
		<path class="st0" d="M166.8,62.9c0,1.8,0,3.6,0,5.4c0,0.3,0,0.6,0,0.9c0,0.9,0.5,1.4,1.3,1.5c0.6,0.1,0.7,0.4,0.6,0.9
			c-0.1,0.5-0.5,0.4-0.9,0.4c-2.1-0.2-4.2-0.2-6.3,0c-0.4,0-0.8,0.1-0.9-0.5c-0.1-0.5,0.2-0.7,0.7-0.8c1.2-0.3,1.2-0.3,1.4-1.5
			c0-0.1,0-0.1,0-0.2c0-4.3,0.2-8.5-0.1-12.8c0-0.6-0.3-0.9-0.9-0.9c-0.5,0-1-0.1-1.5-0.1c-1.4,0.1-2.2,0.9-2.6,2.2
			c-0.1,0.5-0.4,0.7-0.9,0.6c-0.3-0.1-0.5-0.2-0.5-0.6c0.1-1.2,0.3-2.4,0.4-3.6c0-0.3,0.1-0.6,0.6-0.5c2.9,0.4,5.8,0.4,8.7,0.3
			c1.7,0,3.3-0.1,5-0.1c0.4,0,0.8-0.1,1.2-0.2c0.4-0.1,0.6,0,0.6,0.4c0.1,1.1,0.3,2.3,0.4,3.4c0,0.3,0.1,0.7-0.4,0.8
			c-0.4,0.1-0.8,0-0.9-0.5c-0.8-2.6-2.6-2.4-4.5-2.1c-0.4,0.1-0.5,0.4-0.6,0.7c-0.2,1.6-0.1,3.2-0.1,4.9
			C166.8,61.6,166.8,62.3,166.8,62.9z"/>
		<path class="st0" d="M228,71.9c-2.1-0.3-4.3-0.2-6.6,0c-0.4,0-0.7,0-0.7-0.5c0-0.4,0.1-0.7,0.5-0.8c0.3,0,0.6-0.2,0.8-0.2
			c0.4-0.1,0.6-0.4,0.6-0.7c0.1-0.6,0.1-1.3,0.1-1.9c0-3.4,0-6.8,0-10.3c0-0.4-0.1-0.8-0.1-1.1c0.1-1-0.5-1.4-1.3-1.6
			c-0.3-0.1-0.6-0.2-0.6-0.6c0-0.4,0.1-0.7,0.6-0.6c2.3,0.3,4.5,0.1,6.8,0c0.3,0,0.6,0,0.6,0.4c0,0.3,0,0.6-0.4,0.8
			c-1.6,0.5-1.6,0.6-1.6,2.3c0,3.7,0,7.5,0,11.2c0,0.2,0,0.5,0,0.7c0.1,1.3,0.2,1.4,1.4,1.7c0.2,0.1,0.5,0.1,0.6,0.4
			C229,71.6,228.7,71.9,228,71.9z"/>
		<path class="st0" d="M235,98c-1.8-0.3-3.8-0.1-5.8,0c-0.4,0-0.8,0.1-0.9-0.4c-0.1-0.5,0.3-0.7,0.7-0.8c0.9-0.1,1.4-0.6,1.4-1.6
			c0-0.4,0-0.7,0-1.1c0-3.5,0-7.1,0-10.6c0-0.3,0-0.5,0-0.8c-0.1-1.3-0.2-1.4-1.4-1.7c-0.5-0.1-0.7-0.4-0.6-0.9
			c0.1-0.5,0.5-0.4,0.8-0.4c2.2,0.2,4.4,0.1,6.5,0c0.6,0,0.8,0.2,0.7,0.8c0,0.4-0.3,0.4-0.6,0.5c-1.5,0.4-1.4,0.2-1.4,1.9
			c-0.1,4,0,8,0,12c0,1.5,0.1,1.6,1.4,2c0.5,0.1,0.7,0.3,0.6,0.8c-0.1,0.5-0.5,0.4-0.9,0.4C235.4,98.1,235.3,98,235,98z"/>
		<path class="st0" d="M108.4,34.5c0,2.2,0,4.5,0,6.7c0,0.4,0,0.7-0.5,0.7c-0.4,0-0.6-0.1-0.6-0.5c0-2.8,0-5.6,0-8.4
			c0-0.2,0.1-0.5,0.3-0.5c0.4,0,0.8-0.1,1.1,0.3c0.9,1.3,1.8,2.6,2.8,3.8c0.7,1,1.5,2,2.3,3.1c0.2-0.3,0.1-0.6,0.1-0.8
			c0-1.9,0-3.8,0-5.7c0-0.4,0-0.8,0.6-0.8c0.6,0,0.6,0.4,0.6,0.8c0,2.6,0,5.2,0,7.8c0,0.3,0.1,0.7-0.3,0.8c-0.4,0.1-0.8,0-1.1-0.4
			c-1.6-2.2-3.2-4.4-4.8-6.6c-0.1-0.2-0.3-0.4-0.4-0.5C108.4,34.4,108.4,34.4,108.4,34.5z"/>
		<path class="st0" d="M171.2,42.1c-0.7,0-1.3,0-1.8-0.2c-1.5-0.4-2.4-1.4-2.8-2.9c-0.3-1.1-0.3-2.1-0.1-3.2
			c0.4-2.2,1.8-3.4,4.1-3.5c0.7,0,1.3,0,2,0.2c1.7,0.4,2.8,1.4,3.1,3.1c0.2,1.1,0.2,2.2,0,3.3c-0.4,1.9-1.9,3.1-3.8,3.2
			C171.7,42.1,171.4,42.1,171.2,42.1z M167.6,37.1c0,2.6,0.9,3.7,3.3,3.9c1.8,0.1,3.5-0.5,3.8-2.9c0.1-0.7,0.1-1.3,0-1.9
			c-0.2-1.5-1.1-2.3-2.6-2.7c-1.7-0.3-3.3,0.2-4,1.4c-0.1,0.3-0.2,0.5-0.3,0.8C167.6,36.2,167.6,36.7,167.6,37.1z"/>
		<path class="st0" d="M232.5,42.1c-0.5,0-1,0-1.5-0.1c-1.6-0.4-2.7-1.3-3.1-3c-0.3-1.1-0.3-2.2-0.1-3.3c0.4-2,1.5-3,3.5-3.3
			c1.8-0.3,3.6-0.2,5,1.4c1.1,1.2,1.2,2.8,1,4.3C236.9,40.9,235.5,42.1,232.5,42.1z M232.5,33.4c-2,0-3.1,0.8-3.5,2.7
			c-0.2,0.9-0.2,1.8,0.1,2.7c0.3,1,0.9,1.7,1.9,2c0.9,0.3,1.9,0.3,2.9,0c1.6-0.5,2.1-1.7,2.2-3.2C236.3,35.3,235.4,33.4,232.5,33.4z
			"/>
		<path class="st0" d="M212.7,39.7c0.2-0.3,0.1-0.5,0.1-0.8c0-1.9,0-3.8,0-5.7c0-0.4,0-0.8,0.6-0.8c0.6,0,0.6,0.4,0.6,0.8
			c0,2.6,0,5.2,0,7.8c0,0.3,0.2,0.8-0.3,0.9c-0.5,0.2-0.8-0.1-1.1-0.5c-1.5-2.1-3-4.1-4.5-6.2c-0.2-0.2-0.3-0.5-0.6-0.7
			c-0.2,0.2-0.1,0.5-0.1,0.7c0,2,0,4,0,5.9c0,0.4,0,0.8-0.6,0.8c-0.6,0-0.6-0.4-0.6-0.8c0-2.6,0-5.2,0-7.8c0-0.3-0.2-0.7,0.3-0.9
			c0.4-0.1,0.9-0.1,1.2,0.4c1.1,1.5,2.2,3.1,3.3,4.6C211.6,38.2,212.1,39,212.7,39.7z"/>
		<path class="st0" d="M240.5,37.2c0-1.4,0-2.7,0-4.1c0-0.5,0.1-0.7,0.6-0.7c1.3,0,2.7-0.1,4,0.1c2,0.2,3.1,1.4,3.2,3.4
			c0.1,0.8,0.1,1.5,0,2.3c-0.3,2.5-1.4,3.6-3.9,3.7c-1.2,0.1-2.3,0-3.5,0c-0.5,0-0.6-0.2-0.6-0.6C240.5,39.9,240.5,38.5,240.5,37.2z
			 M241.7,37.2c0,1,0,2,0,3c0,0,0,0,0,0.1c0,0.4,0.1,0.6,0.6,0.6c0.9,0,1.8,0,2.6-0.2c1.3-0.2,2.1-0.9,2.3-2.2c0.2-1,0.2-1.9,0-2.9
			c-0.2-1.1-0.9-1.8-2-2c-1-0.2-1.9-0.1-2.9-0.1c-0.5,0-0.7,0.2-0.7,0.7C241.7,35.2,241.7,36.2,241.7,37.2z"/>
		<path class="st0" d="M148.5,36.1c0,0.8,0,1.6,0,2.4c-0.1,2.1,1.2,2.6,3,2.6c0.2,0,0.4,0,0.5-0.1c1.3-0.1,2-0.8,2-2.1
			c0-1.9,0-3.8,0-5.7c0-0.3,0-0.7,0.5-0.7c0.5,0,0.7,0.1,0.7,0.6c-0.1,2,0.1,4.1-0.1,6.1c-0.2,1.6-0.9,2.5-2.5,2.8
			c-0.9,0.2-1.8,0.2-2.6,0c-1.8-0.3-2.6-1.3-2.7-3.3c-0.1-1.9,0-3.8,0-5.7c0-0.4,0.2-0.6,0.6-0.6c0.4,0,0.6,0.2,0.6,0.6
			C148.5,34,148.5,35.1,148.5,36.1C148.5,36.1,148.5,36.1,148.5,36.1z"/>
		<path class="st0" d="M250,37.1c0-1.3,0-2.6,0-3.9c0-0.6,0.2-0.8,0.8-0.8c1.6,0,3.3,0,4.9,0c0.4,0,0.7,0.1,0.7,0.6
			c0,0.5-0.3,0.5-0.7,0.5c-1.3,0-2.6,0-3.8,0c-0.6,0-0.8,0.2-0.7,0.7c0,0.5,0,1,0,1.6c0,0.5,0.2,0.6,0.6,0.6c1.3,0,2.5,0,3.8,0
			c0.4,0,0.7,0,0.7,0.6c0,0.5-0.3,0.6-0.7,0.6c-1.2,0-2.5,0-3.7,0c-0.5,0-0.7,0.2-0.7,0.7c0,0.6,0,1.3,0,1.9c0,0.5,0.2,0.8,0.7,0.7
			c1.3,0,2.6,0,3.8,0c0.3,0,0.7,0,0.7,0.5c0,0.5-0.3,0.5-0.7,0.5c-1.7,0-3.4,0-5.1,0c-0.5,0-0.7-0.2-0.7-0.7
			C250,39.9,250,38.5,250,37.1z"/>
		<path class="st0" d="M188.8,37.1c0-1.3,0-2.7,0-4c0-0.6,0.2-0.8,0.8-0.7c1.6,0,3.3,0,4.9,0c0.4,0,0.7,0.1,0.7,0.6
			c0,0.5-0.3,0.6-0.7,0.6c-1.3,0-2.6,0-3.8,0c-0.5,0-0.7,0.2-0.7,0.7c0,0.5,0,1,0,1.6c0,0.5,0.2,0.7,0.7,0.7c1.2,0,2.5,0,3.7,0
			c0.4,0,0.7,0,0.7,0.6c0,0.5-0.3,0.6-0.7,0.6c-1.2,0-2.5,0-3.7,0c-0.5,0-0.7,0.2-0.7,0.7c0,0.7,0,1.3,0,2c0,0.5,0.2,0.7,0.7,0.7
			c1.3,0,2.6,0,3.8,0c0.3,0,0.7,0,0.7,0.5c0,0.6-0.4,0.5-0.7,0.5c-1.6,0-3.3,0-4.9,0c-0.6,0-0.8-0.2-0.7-0.7
			C188.8,39.8,188.8,38.5,188.8,37.1z"/>
		<path class="st0" d="M120.6,42.1c-1.3,0-2.4-0.2-3.5-0.8c-0.3-0.1-0.6-0.3-0.4-0.7c0.2-0.4,0.4-0.5,0.9-0.3
			c1.3,0.7,2.6,0.9,4.1,0.6c0.7-0.1,1.3-0.5,1.5-1.2c0.2-0.8-0.1-1.4-0.8-1.7c-0.7-0.3-1.5-0.4-2.2-0.5c-0.5-0.1-1.1-0.2-1.6-0.4
			c-1-0.4-1.5-1.1-1.5-2.2c0-1.2,0.6-2,1.6-2.3c1.6-0.4,3.1-0.4,4.6,0.3c0.3,0.1,0.6,0.3,0.4,0.7c-0.2,0.3-0.4,0.6-0.8,0.3
			c-1-0.5-2-0.6-3.1-0.5c-1,0.1-1.5,0.6-1.5,1.5c0,0.6,0.3,1,0.9,1.2c0.7,0.3,1.5,0.4,2.2,0.5c0.4,0.1,0.8,0.2,1.2,0.3
			c1.2,0.4,1.8,1.1,1.8,2.3c0,1.3-0.6,2.2-1.8,2.6C121.9,42,121.2,42.1,120.6,42.1z"/>
		<path class="st0" d="M201.2,42.1c-0.7,0-1.5-0.1-2.2-0.4c-1.8-0.7-2.3-2.2-2.5-3.9c-0.1-0.7,0-1.5,0.2-2.2c0.4-2,1.9-3.1,4.1-3.3
			c1.2-0.1,2.3,0.1,3.3,0.8c0.2,0.2,0.7,0.3,0.3,0.7c-0.2,0.3-0.5,0.7-1,0.3c-1-0.7-2.1-0.8-3.2-0.6c-1.3,0.3-2.1,1.1-2.4,2.3
			c-0.2,1-0.2,1.9,0,2.9c0.3,1.2,1,1.9,2.2,2.1c1.2,0.2,2.4,0.3,3.5-0.6c0.5-0.4,0.6,0,0.9,0.2c0.3,0.4,0,0.5-0.2,0.7
			C203.4,41.9,202.4,42.1,201.2,42.1z"/>
		<path class="st0" d="M222.9,42.1c-3.3,0-5-1.9-4.8-5.3c0.1-1.7,0.6-3.2,2.3-3.9c1.8-0.8,3.6-0.8,5.3,0.3c0.2,0.1,0.7,0.3,0.3,0.7
			c-0.2,0.3-0.5,0.6-1,0.3c-1.1-0.8-2.4-0.8-3.6-0.4c-1.1,0.3-1.7,1.1-2,2.2c-0.2,1-0.2,1.9,0,2.9c0.3,1.2,1,1.9,2.2,2.1
			c1.2,0.2,2.4,0.3,3.5-0.6c0.5-0.4,0.6,0,0.9,0.3c0.3,0.4,0,0.5-0.2,0.7C224.9,41.9,223.8,42.1,222.9,42.1z"/>
		<path class="st0" d="M182.6,37.7c0-1.1,0-2.3,0-3.4c0-0.6-0.2-0.8-0.8-0.8c-0.7,0-1.3,0-2,0c-0.4,0-0.7-0.1-0.7-0.6
			c0-0.5,0.3-0.6,0.7-0.6c2.3,0,4.6,0,6.9,0c0.4,0,0.6,0.2,0.6,0.6c0,0.4-0.2,0.5-0.6,0.5c-0.7,0-1.4,0-2.2,0
			c-0.6,0-0.7,0.2-0.7,0.7c0,2.3,0,4.6,0,6.9c0,0.3,0.1,0.7-0.4,0.8c-0.5,0.1-0.8-0.1-0.8-0.7C182.6,40.1,182.6,38.9,182.6,37.7
			C182.6,37.7,182.6,37.7,182.6,37.7z"/>
		<path class="st0" d="M141.1,37.7c0-1.1,0-2.3,0-3.4c0-0.6-0.2-0.8-0.8-0.8c-0.7,0-1.4,0-2.1,0c-0.4,0-0.6-0.1-0.6-0.5
			c0-0.4,0.2-0.6,0.6-0.6c2.3,0,4.6,0,7,0c0.4,0,0.6,0.1,0.6,0.6c0,0.5-0.2,0.6-0.6,0.6c-0.2,0-0.4,0-0.6,0c-0.7,0-1.6-0.3-2.1,0.2
			c-0.5,0.5-0.2,1.4-0.2,2.1c0,1.8,0,3.6,0,5.3c0,0.3,0.1,0.7-0.4,0.7c-0.5,0.1-0.8,0-0.8-0.6C141.2,40.1,141.1,38.9,141.1,37.7z"/>
		<path class="st0" d="M161.4,37.8c0,1.1,0,2.2,0,3.3c0,0.4,0.1,0.8-0.6,0.8c-0.6,0-0.6-0.4-0.6-0.8c0-2.2,0-4.4,0-6.5c0-1,0-1-1-1
			c-0.6,0-1.3,0-1.9,0c-0.4,0-0.6-0.1-0.6-0.6c0-0.4,0.2-0.6,0.6-0.6c2.3,0,4.7,0,7,0c0.4,0,0.6,0.1,0.6,0.5c0,0.5-0.2,0.6-0.6,0.6
			c-0.7,0-1.5,0-2.2,0c-0.5,0-0.7,0.2-0.7,0.7C161.4,35.4,161.4,36.6,161.4,37.8z"/>
		<path class="st0" d="M128.8,37.7c0-1.1,0-2.2,0-3.2c0-0.9,0-0.9-0.9-0.9c-0.7,0-1.3,0-2,0c-0.4,0-0.6-0.1-0.6-0.6
			c0-0.4,0.2-0.5,0.6-0.5c2.3,0,4.7,0,7,0c0.4,0,0.6,0.2,0.6,0.6c0,0.4-0.2,0.6-0.6,0.6c-0.7,0-1.5,0-2.2,0c-0.5,0-0.7,0.2-0.7,0.7
			c0,2.3,0,4.6,0,7c0,0.3,0,0.7-0.5,0.7c-0.4,0-0.7-0.1-0.7-0.6C128.9,40.1,128.8,38.9,128.8,37.7C128.8,37.7,128.8,37.7,128.8,37.7
			z"/>
		<path class="st0" d="M216.6,37.2c0,1.4,0,2.7,0,4.1c0,0.4-0.1,0.7-0.6,0.7c-0.5,0-0.6-0.3-0.6-0.7c0-2.7,0-5.4,0-8.1
			c0-0.4,0.1-0.7,0.6-0.7c0.5,0,0.6,0.3,0.6,0.7C216.6,34.5,216.6,35.8,216.6,37.2z"/>
		<path class="st0" d="M104.6,37.1c0-1.3,0-2.7,0-4c0-0.4,0.1-0.7,0.6-0.7c0.5,0,0.6,0.3,0.6,0.7c0,2.7,0,5.4,0,8.1
			c0,0.4-0.1,0.7-0.6,0.7c-0.5,0-0.6-0.3-0.6-0.7C104.6,39.9,104.6,38.5,104.6,37.1z"/>
		<path class="st0" d="M136.1,37.2c0,1.4,0,2.7,0,4.1c0,0.4,0,0.7-0.5,0.7c-0.5,0-0.6-0.3-0.6-0.7c0-2.7,0-5.4,0-8.2
			c0-0.4,0.1-0.7,0.5-0.7c0.5,0,0.6,0.3,0.6,0.7C136.1,34.5,136.1,35.8,136.1,37.2z"/>
		<path class="st0" d="M191.5,32.1c-0.3,0-0.5,0-0.6-0.1c-0.1-0.2,0.1-0.3,0.2-0.4c0.4-0.4,0.8-0.8,1.2-1.2c0.1-0.1,0.3-0.3,0.5-0.3
			c0.3,0,0.8-0.2,0.9,0.1c0.1,0.2-0.3,0.4-0.5,0.6c-0.4,0.4-0.8,0.7-1.1,1.1C191.9,32,191.6,32.1,191.5,32.1z"/>
	</g>
	<g>
		<path class="st1" d="M1.1,11.6c2.6-2,5.4-3.4,8.4-4.7c3.2-1.4,6.5-2.4,9.8-3.2c2.9-0.7,5.9-1.3,8.9-1.6C28.6,2.1,29,2,29.4,2
			c0.4,0,0.8-0.2,1.2-0.1c0.3-0.2,0.6,0,0.8-0.1c0.3,0,0.5,0,0.8,0c0.3-0.2,0.7,0.1,1.1-0.1c0.4,0,0.9,0,1.3,0
			c0.8-0.2,1.6,0.1,2.4-0.1c0.8,0,1.6,0,2.4,0c0.8,0.2,1.6-0.1,2.4,0.1c0.4,0,0.9,0,1.3,0c0.3,0.2,0.6,0,0.9,0.1c0.3,0,0.6,0,0.9,0
			c0.3,0.2,0.6,0,0.8,0.1c0.2,0,0.4,0,0.7,0c0.2,0.2,0.5,0,0.7,0.1c2.9,0.4,5.9,0.8,8.8,1.5c5.3,1.2,10.4,3,15.2,5.5
			c1.3,0.7,2.5,1.5,3.7,2.3c0.4,0.3,0.5,0.6,0.5,1.1c0,26.3,0,52.7,0,79c0,5.5-1.7,10.5-5.1,14.9c-1,1.2-2.2,2.3-3.4,3.3
			c-1.6,1.4-3.3,2.8-5,4.1c-2.5,1.8-5,3.5-7.7,5c-3.3,1.8-6.6,3.3-10.2,4.5c-1.8,0.6-3.6,1-5.5,1.4c-0.6,0.1-1.1-0.1-1.7-0.2
			c-4-0.8-7.8-2.2-11.5-3.9c-3.1-1.5-6.1-3.2-9-5.2c-2.2-1.5-4.2-3.1-6.2-4.8c-0.9-0.8-1.9-1.6-2.8-2.4c-3.3-3.3-5.3-7.3-6.1-11.9
			c-0.3-1.4-0.4-2.8-0.4-4.2c-0.1-0.2-0.1-0.5-0.1-0.7c0-26.3,0-52.6,0-78.8C1.1,12.1,1,11.8,1.1,11.6z"/>
		<path class="st2" d="M1.1,11.6c0,20.4,0,40.7,0,61.1c0,6.4,0,12.8,0,19.2C0.9,91.7,1,91.4,1,91.1c0-10.7,0-21.4,0-32.1
			c0-15.5,0-31,0-46.5C1,12.2,0.9,11.9,1.1,11.6z"/>
		<path class="st3" d="M37.1,1.5c-0.8,0.3-1.6,0.1-2.4,0.1C35.4,1.3,36.3,1.5,37.1,1.5z"/>
		<path class="st3" d="M41.9,1.6c-0.8-0.1-1.6,0.2-2.4-0.1C40.3,1.5,41.1,1.3,41.9,1.6z"/>
		<path class="st3" d="M33.3,1.6c-0.3,0.3-0.7,0.1-1.1,0.1C32.5,1.5,32.9,1.7,33.3,1.6z"/>
		<path class="st3" d="M44.2,1.7c-0.3,0-0.7,0.1-0.9-0.1C43.6,1.7,44,1.5,44.2,1.7z"/>
		<path class="st3" d="M31.4,1.7c-0.2,0.2-0.5,0.1-0.8,0.1C30.8,1.6,31.1,1.8,31.4,1.7z"/>
		<path class="st3" d="M46,1.9c-0.3,0-0.6,0.1-0.8-0.1C45.5,1.8,45.8,1.6,46,1.9z"/>
		<path class="st3" d="M47.4,2c-0.2,0-0.5,0.1-0.7-0.1C46.9,1.9,47.2,1.8,47.4,2z"/>
		<path class="st4" d="M73.8,52.6c0,12.9,0,25.8,0,38.7c0,5.1-1.4,9.8-4.7,13.8c-1.7,2-3.7,3.6-5.7,5.3c-5.9,4.9-12.5,8.6-19.8,11
			c-1.6,0.5-3.3,0.9-5,1.2c-0.9,0.2-1.7-0.2-2.6-0.4c-4.5-1.1-8.8-2.9-12.9-5.1c-5.2-2.8-9.9-6.4-14.2-10.5
			c-2.8-2.6-4.5-5.9-5.4-9.6c-0.5-1.9-0.7-3.9-0.7-5.9c0-2.5,0-5,0-7.4c-0.2-23.4,0-46.9-0.1-70.3c0-0.6,0.2-1,0.7-1.3
			c4.2-2.6,8.7-4.5,13.4-5.9c4.1-1.2,8.2-2,12.4-2.5c3.8-0.4,7.5-0.6,11.3-0.5c10.2,0.3,20,2.3,29.2,6.9c1.2,0.6,2.4,1.3,3.5,2
			c0.4,0.3,0.6,0.6,0.6,1.1C73.8,26.3,73.8,39.5,73.8,52.6z"/>
		<path class="st0" d="M58,56.5c0,0,0,0.1,0,0.1c0,0.5,0.1,1,0.2,1.4c0,0.4,0.2,0.8,0.1,1.3c0.2,0.8,0.3,1.6,0.6,2.4
			c0.3,0.5,0.3,1.1,0.4,1.7c0.1,0.3,0.1,0.6,0.2,0.9c0.4,0.7,0.9,1.4,0.8,2.3c0,0.3,0.2,0.4,0.5,0.5c1.4,0.4,2.2,1.4,2.5,2.8
			c0.2,0.4,0.5,0.6,0.8,0.9c0.2,0.2,0.4,0.4,0.2,0.6c-0.2,0.3-0.5,0.1-0.7,0c-0.4-0.2-0.5-0.6-0.9-0.8c-0.2,0.3-0.1,0.6-0.1,0.9
			c0.2,1.2,0.6,2.3,0.1,3.5c0,0,0,0.1,0,0.1c0,0.2,0,0.4-0.2,0.4c-0.1,0-0.1-0.1-0.2-0.1c-0.2-0.5-0.1-1-0.1-1.5
			c0-0.6-0.3-1.1-0.5-1.7c0-0.1-0.1-0.2-0.2-0.2c-0.2,0-0.2,0.2-0.2,0.3c0,0.3,0,0.6,0,0.9c0,0.8-0.2,1.2-1,1.5
			c-0.1,0-0.2,0.1-0.2,0.1c-0.3,0.2-0.4,0.5-0.3,0.8c0,0.2,0,0.3-0.2,0.3c-0.2,0-0.3-0.1-0.3-0.3c-0.1-0.5,0-1,0.2-1.4
			c0,0,0,0,0-0.1c-0.1-0.4,0.1-0.8-0.2-1.3c-0.2,0.4-0.4,0.7-0.5,1.1c0,0.2,0,0.4-0.2,0.6c-0.3-0.3-0.4-0.6-0.3-1
			c0-0.3,0.1-0.6,0.1-0.9c0.2-0.5-0.3-0.9-0.3-1.4c-0.3-0.5-0.4-1-0.5-1.6c0-0.4,0-0.8,0-1.2c-0.2-0.4-0.7-0.8-0.6-1.4
			c0-0.1,0-0.2,0-0.3c-0.7-1.2-1.5-2.2-2.4-3.3c-0.1-0.2-0.3-0.3-0.4-0.5c-0.6-0.7-1.1-1.4-1.6-2.3c-0.7-1.3-1.3-2.7-2.1-4
			c-0.3-0.5-0.3-1.1-0.5-1.6c0-0.2,0-0.3,0-0.5c-0.3-0.8-0.1-1.6-0.2-2.4c0.1-1.2-0.3-2.3-0.8-3.3c-0.2-0.6-0.4-1.2-0.7-1.8
			c-0.2,0.2-0.3,0.3-0.2,0.5c0,0,0,0.1,0,0.1c-0.3,0.5-0.2,1.1-0.3,1.7c-0.5,1.7-1.3,3.4-2.1,5c-0.2,0.3-0.3,0.7-0.4,1.1
			c-0.1,0.5,0,1,0.1,1.5c0.1,0.8,0.1,1.6-0.3,2.4c0,0.1-0.1,0.1-0.1,0.2c-0.2,0.4,0.1,0.8,0.2,1.2c0.2,0.6,0.5,1.2,0.5,1.9
			c0.2,0.4,0.3,0.7,0.3,1.1c0,0.2,0,0.5,0,0.7c0,1,0,2.1,0.3,3.1c0,0.1,0,0.2,0,0.2c0.3,0.6,0.4,1.2,0.6,1.8c0.4,1,0.7,2.1,0.9,3.1
			c0.1,0.7,0.3,1.3,0.4,2c0.2,0.9,0,1.8,0,2.7c0,0.7,0,1.4-0.1,2.1c-0.1,0.2,0,0.4,0,0.5c0,0.1-0.1,0.3-0.1,0.4
			c-0.1,0.2-0.1,0.4-0.1,0.5c-0.4,1.5-0.1,2.9,0.3,4.4c0.1,0.4,0.1,0.8,0.3,1.3c0.3,0.7,1,1.1,1.3,1.8c1.2,2.1,2.2,4.2,1.8,6.7
			c0,0.7,0,1.4-0.2,2.1c0,0.1,0.1,0.1,0.1,0.2c-0.2,0.4-0.2,0.9-0.3,1.4c-0.1,0.6-0.2,1.2-0.4,1.8c0,0,0,0.1,0,0.1
			c0,0.6-0.2,1.2-0.3,1.8c-0.2,1.1,0.5,2,0.7,3.1c0.3,0.8,1,1.2,1.5,1.8c0.3,0.5,0.7,0.8,1.1,1.1c0.3,0.2,0.6,0.5,0.9,0.7
			c0.4,0.3,0.6,0.6,0.5,1.2c0,0.5,0.5,0.9,0.1,1.4c0.1,0.4,0.1,0.8,0.3,1.1c0.2,0.3,0,0.5-0.3,0.6c-0.4,0.2-0.9-0.1-1.3,0.1
			c-0.4,0.1-0.8,0-1.2,0c-0.5-0.3-0.8-0.7-1.4-0.7c-0.3,0-0.3-0.3-0.5-0.5c-0.1-0.2,0-0.3,0-0.5c0.1-0.2,0.1-0.5,0-0.7
			c-0.3-0.6-0.8-1-1.2-1.6c-0.1-0.3-0.4-0.4-0.5-0.7c-0.1-0.2-0.2-0.4-0.3-0.6c-0.6-0.5-1-1.2-1.1-2c-0.1-1-0.2-1.9-0.4-2.8
			c0-0.2,0-0.4,0-0.6c-0.1-1.1-0.7-2-1-3.1c-0.1-0.3-0.3-0.6-0.4-0.8c-0.2-0.3-0.3-0.6-0.6-0.9c-0.2-0.4-0.5-0.8-0.6-1.3
			c-0.1-0.6,0-1.3,0.1-1.9c0-1.1,0.1-2.2-0.1-3.4l0,0c-0.1-0.6-0.5-1.1-0.9-1.6c-1.2-1.3-1.7-2.9-2.1-4.5c0-0.2,0-0.4,0-0.5
			c-0.2-0.4-0.2-0.9-0.3-1.4c0.1-0.8-0.2-1.6-0.4-2.3c-0.1-0.3-0.1-0.7-0.2-1c-0.4-1-0.8-2-1.4-3c-0.8-1.2-1.2-2.6-1.7-4
			c-0.1-0.3-0.2-0.6-0.3-0.9l0,0c-0.1-0.1-0.1-0.2-0.2-0.3c-0.1,0.4-0.1,0.8,0,1.2c0,0.4,0.1,0.9,0.1,1.3c0,0.2,0,0.5,0,0.7
			c0.1,1.6,0.1,3.2,0.1,4.8c0,0.4,0,0.8,0.2,1.2c0,0.1-0.1,0.2-0.1,0.3c0.2,0.5,0.2,1.1,0.2,1.6c0.1,0.4,0,0.8,0.1,1.2
			c0.1,0.2,0,0.4,0.1,0.5c0.2,0.7,0.2,1.5,0.3,2.2c0,0.3,0,0.6,0,0.9c-0.1,0.9-0.1,1.7-0.2,2.6c0,0.6,0.4,1.1,0.6,1.6
			c0.3,0.7,0.7,1.3,0.9,2c0.1,0.3,0.2,0.6,0.3,0.9c-0.1,0.6,0.2,1.1,0.2,1.7c0.1,0.5,0.1,1,0,1.5c-0.2,0.8-0.2,1.5,0,2.2
			c0.1,0.4,0.1,0.8,0.2,1.2c0,0.7,0,1.4,0,2.2c-0.1,0.5,0,1.1-0.1,1.7c0,0.5,0,0.9,0,1.4c0.1,0.6,0.2,1.3,0.4,1.9c0,0,0,0.1,0,0.1
			c0,0.4,0.1,0.7,0.1,1.1c0.1,0.6,0,1.2,0,1.9c0,0.6-0.4,0.9-1.3,1.1c-1,0.5-1.7,1.4-2.3,2.3c-0.2,0.3-0.3,0.5-0.5,0.7l0,0.1
			c-0.2,0.2-0.5,0.3-0.8,0.2l0,0c-0.5,0.1-0.7,0.6-1.2,0.5c-0.6,0.1-1.1-0.5-1.8-0.3c-0.1,0-0.2-0.1-0.2-0.2
			c-0.2-0.5,0.2-0.8,0.3-1.2c0.1-0.3,0.2-0.5,0.2-0.8c0.1-0.5,0-1.1,0.7-1.3c0.8-0.2,1.4-0.6,2-1.1c0.2-0.1,0.4-0.3,0.6-0.5
			c0.4-0.4,0.5-0.9,0.9-1.4c0.1-0.1,0.2-0.3,0.1-0.5c-0.2-0.7-0.3-1.3-0.2-2c-0.1-0.5-0.3-0.9-0.4-1.4c-0.3-0.6-0.6-1.3-1-2
			c-0.8-1.8-1.7-3.5-2.3-5.4c-0.2-0.6-0.4-1.2-0.5-1.9c-0.1-0.2,0-0.5-0.1-0.7c-0.1-0.2,0-0.4-0.1-0.6c0-0.1,0-0.2,0-0.2
			c-0.1-0.3,0-0.6-0.1-0.9c-0.1-1.1-0.2-2.3,0.2-3.4c0.1-1,0-1.9-0.1-2.9l0,0c-0.5-0.4-0.6-1.1-0.7-1.6c0-1.2,0.1-2.4-0.3-3.6
			c-0.5-1-1-1.9-1.5-2.8c-0.2-0.3-0.4-0.6-0.6-0.9c-0.7-1-1.4-1.9-1.7-3.1c-0.1-0.3-0.1-0.6-0.2-0.9c-0.1-0.3,0-0.6-0.1-0.9
			c0-0.9-0.2-1.8-0.1-2.7c-0.2-1.1-0.1-2.2-0.2-3.3c0-0.7,0-1.4,0-2c-0.1-0.5-0.2-1-0.3-1.5c0-0.4-0.1-0.7-0.1-1.1
			c0-0.7,0-1.4,0.1-2c0.1-0.4,0.1-0.8,0.3-1.2c0-0.2,0.1-0.5,0.2-0.7c0-0.1,0-0.1,0-0.2c0.3-0.5,0.4-1.1,0.4-1.7c0-0.2,0-0.3,0-0.5
			c0.1-0.8,0.7-1.5,1-2.2c0.4-0.9,0.5-1.8,0.3-2.7c0-0.1,0-0.1,0-0.2c-0.2-0.3,0-0.8-0.3-1.1c-0.4,0.7-0.6,1.4-0.9,2.1
			c-0.2,0.5-0.3,1-0.3,1.5c-0.1,0.3,0,0.6-0.1,0.8c-0.1,0.4-0.1,0.8-0.2,1.2c-0.2,0.6-0.4,1.2-0.7,1.7c-1,2.2-2.3,4.2-3.6,6.2
			c-0.6,0.8-1.4,1.4-2.1,2.2c-0.2,0.2-0.4,0.4-0.6,0.6c-0.4,0.4-0.6,0.9-0.8,1.4c-0.1,0.2-0.2,0.5-0.5,0.7c-0.5,0.3-0.7,0.8-0.7,1.4
			c-0.2,0.9-0.6,1.7-1.1,2.5c0,0.9-0.3,1.7-0.9,2.4c-0.1,0.1-0.1,0.5-0.4,0.3c-0.2-0.1-0.1-0.4,0-0.6c0-0.1,0.1-0.2,0.1-0.2
			c0.2-0.6,0.6-1.1,0.2-1.7c-0.1-0.1-0.2-0.3-0.4-0.1c-0.3,0.4-0.2,0.8-0.4,1.3c-0.3,0.7-0.5,1.3-1.2,1.7c-0.3,0.2-0.6,0.5-0.9,0.8
			c-0.1,0.1-0.2,0.2-0.3,0.1c-0.2,0-0.2-0.2-0.2-0.3c0-0.2,0-0.3,0.1-0.5c0.4-0.6,0.5-1.3,0.9-1.9c0.2-0.5,0-1,0.4-1.5
			c0.1-0.1,0-0.2-0.1-0.3c-0.2-0.1-0.3-0.1-0.5,0.1c-0.1,0.7-0.4,1.4-0.8,2c-0.3,0.3-0.4,0.7-0.8,0.8c-0.4-0.2-0.2-0.4-0.1-0.7
			c0.3-0.8,0.7-1.6,0.9-2.5c0-0.2,0-0.3,0-0.5c0.1-0.3,0.1-0.6,0.2-0.8c0.1-0.1,0.1-0.3,0-0.4c-0.2-0.1-0.3-0.1-0.5,0
			c-0.3,0.3-0.8,0.4-1.2,0.7c-0.2,0.2-0.6,0.3-1,0.1c-0.1,0-0.1-0.1-0.2-0.1c-0.1-0.1-0.1-0.3,0-0.3c0.6-0.2,0.9-0.8,1.5-1.1
			c0.5-0.2,0.8-0.5,1.2-1c0.5-0.6,1.1-1,1.8-1.2c0.2-0.1,0.5-0.1,0.7-0.1c0.1,0,0.1-0.1,0.2-0.1c0.3-0.5,0.7-0.9,1.1-1.4
			c0.3-0.4,0.6-0.8,0.7-1.3c0-0.3,0.1-0.6,0.2-0.9c0.3-0.9,0.6-1.7,1.1-2.5c0.3-0.4,0.3-0.9,0.5-1.3c0,0,0-0.1,0-0.1
			c0-0.8,0.4-1.5,0.6-2.2c0.2-0.6,0.3-1.2,0.5-1.9l0,0c0.1-0.7,0.3-1.3,0.9-1.8c0.5-0.7,1.2-1.3,1.6-2c0.7-0.5,0.9-1.3,0.8-2.1
			c0.1-0.7,0.1-1.4,0.2-2.1c0.3-0.9,0.6-1.7,0.8-2.7c0.3-0.8,0.1-1.6,0-2.5c0-0.2,0-0.4-0.1-0.5c0-0.2-0.1-0.5-0.1-0.7
			c0-0.2-0.1-0.4-0.1-0.5c0-0.4,0-0.7,0-1.1c-0.1-0.9,0.2-1.7,0.7-2.5c0.3-0.9,1-1.3,1.9-1.7c0.5-0.2,1-0.5,1.6-0.6
			c0.4-0.1,0.7,0,1.1-0.1c0.1,0,0.1,0,0.2,0c0.5-0.3,1-0.6,1.6-0.8c0.3-0.1,0.5-0.2,0.7-0.4c0.5-0.4,0.8-1,1.4-1.3
			c0.3-0.2,0.2-0.7,0.2-1.1c0.3-0.6-0.4-0.8-0.6-1.1l0,0l0,0c-0.7,0.1-1.1-0.2-1.2-0.9c-0.1-0.3-0.3-0.6-0.5-0.8
			c-0.3-0.4-0.6-0.8-0.9-1.2c-0.2-0.7,0-1.5-0.6-2c-0.3-0.3-0.4-0.6-0.5-1c-0.3-0.7-0.3-1.5-0.3-2.3c0.1-0.4,0.2-0.7,0.4-1.1
			c0.9-1.5,2-2.8,3.8-3.1c0.6-0.2,1.2-0.2,1.8-0.1c1.4,0.3,2.6,0.8,3.7,1.7c0.6,0.5,1,1.2,1.1,1.9c0.1,0.4,0.1,0.7,0.2,1.1
			c0,0.2,0,0.4,0,0.6c0.1,0.3,0,0.6,0.2,0.9c0,0,0,0.1,0,0.1c0,0.7,0,1.4-0.3,2c-0.1,0.1-0.1,0.3-0.1,0.5c0.1,0.8,0.1,1.6-0.1,2.4
			c0,0.2,0.1,0.3,0.1,0.5c0.4,1.8,1.7,2.6,3.4,3c0.2,0,0.4,0.1,0.5,0.1c0.2,0,0.3,0,0.5,0c0.6,0.1,1.2,0.2,1.7,0.3
			c0.5,0.2,1,0.2,1.5,0.4c1.2,0,2.1,0.7,2.8,1.5c0.5,0.5,0.7,1.3,1.2,1.9c0.1,0.2,0.3,0.4,0.4,0.7c0.4,0.6,0.3,1.4,0.5,2.1
			c0,0.5,0,1,0,1.5c-0.2,0.9-0.1,1.8,0.3,2.7c0.5,1,0.7,2.1,0.8,3.2c0,0.5,0,1,0,1.4c-0.1,0.9,0.3,1.6,1,2.1
			c0.7,0.9,1.5,1.7,2.1,2.6c0.5,0.7,0.6,1.4,0.8,2.2C57.8,55.8,57.8,56.2,58,56.5z"/>
		<path class="st5" d="M53.6,5.6c0.1,0,0.2,0,0.2,0c1.4,0.2,2.7,0.6,4,0.9c1,0.3,2,0.6,3,0.9c3.3,1,6.4,2.3,9.4,3.9
			c0.8,0.4,1.5,0.8,2.3,1.3c0.3,0.1,0.4,0.4,0.4,0.7c0,3.1,0,6.3,0,9.4c0,0.2,0.1,0.5-0.3,0.4c-0.8-0.4-1.6-0.9-2.4-1.3
			c-3.8-2-7.7-3.4-11.8-4.6c-0.8-0.2-1.6-0.4-2.4-0.6c-0.5-0.1-0.9-0.2-1.4-0.3c-0.3-0.1-0.7-0.2-1-0.2c-0.1,0-0.3-0.1-0.4-0.1
			c-1-0.2-2.1-0.4-3.1-0.5c-0.2,0-0.4-0.1-0.5-0.1c-0.2-0.1-0.4,0-0.5-0.1c-1-0.1-2-0.3-3-0.3c-2.8-0.2-5.6-0.4-8.5-0.4
			c-1,0-1.9,0-2.9,0.1c-1.9,0.1-3.7,0.2-5.6,0.5c-0.5,0-0.9,0.1-1.4,0.1c-1.5,0.2-2.9,0.5-4.4,0.7c-1.5,0.4-3,0.6-4.5,1.1
			c-0.2,0.1-0.4,0.1-0.6,0.2c-0.2,0.1-0.4,0.1-0.6,0.2c-0.5,0.2-1.1,0.3-1.7,0.5c-4.1,1.3-8,2.9-11.6,5.1c-0.3,0.1-0.6,0.3-0.6-0.3
			c0-3.3,0-6.5,0-9.8c0.8-0.8,1.8-1.2,2.8-1.8c2.3-1.2,4.6-2.2,7-3.1c1.9-0.7,3.9-1.3,5.9-1.8c0.5-0.1,1.1-0.3,1.7-0.4
			c1.2-0.2,2.3-0.6,3.6-0.7c0.4-0.1,0.8-0.1,1.3-0.2c0.1,0,0.3,0,0.4,0c0.3-0.1,0.7-0.1,1.1-0.2c0.6-0.1,1.2-0.2,1.8-0.2
			c0.2-0.1,0.5,0,0.8-0.1c0.2,0,0.4,0,0.6-0.1c0.3,0,0.5,0,0.8-0.1c0.6,0,1.1-0.1,1.6-0.1c2.8-0.2,5.5-0.1,8.3-0.1
			c1.2,0.1,2.4,0.1,3.6,0.2c0.3,0.1,0.6,0,0.8,0.1c0.8,0.1,1.7,0.2,2.5,0.3c0.5,0.2,1,0.1,1.6,0.3c0.9,0.1,1.9,0.3,2.8,0.4
			C52.8,5.5,53.2,5.4,53.6,5.6z"/>
		<path class="st6" d="M58.5,17.3c3.1,0.8,6.2,1.9,9.1,3.2c1.7,0.8,3.4,1.6,4.9,2.6c0,0.1-0.1,0.1-0.1,0.1
			c-4.5-2.6-9.2-4.5-14.2-5.8C58.2,17.1,58.3,17.2,58.5,17.3z"/>
		<path class="st6" d="M4.4,23c2.4-1.6,5.1-2.7,7.8-3.8c1.2-0.5,2.4-0.9,3.7-1.2c0.1-0.1,0.3-0.1,0.3,0.1c-4,1.3-7.9,2.9-11.6,5
			C4.4,23.1,4.4,23,4.4,23z"/>
		<path class="st7" d="M72.4,12.7c-3.6-2.2-7.5-3.8-11.5-5.1c0-0.1,0-0.1,0-0.2c4.1,1.3,8,2.9,11.6,5.2
			C72.5,12.6,72.4,12.6,72.4,12.7z"/>
		<path class="st8" d="M34.5,14.7c3.8-0.2,7.7-0.1,11.5,0.3c0,0.1,0,0.2-0.2,0.1c-3.7-0.3-7.3-0.3-11-0.3c-0.1,0-0.2,0-0.3,0
			C34.5,14.9,34.5,14.8,34.5,14.7C34.5,14.8,34.5,14.7,34.5,14.7z"/>
		<path class="st9" d="M13.4,8.3c-3.3,1.3-6.6,2.7-9.6,4.6c-0.1-0.1-0.1-0.1,0-0.2c1.9-1.4,4.1-2.3,6.2-3.3c1.1-0.5,2.1-0.9,3.2-1.3
			C13.4,8.1,13.4,8.2,13.4,8.3z"/>
		<path class="st10" d="M51.7,95c0.2-2-0.4-3.8-1.2-5.6c-0.3-0.7-0.8-1.4-1.4-2c-0.2-0.3-0.5-0.5-0.6-0.8c-0.1-0.1,0-0.2,0.1-0.1
			c0.2,0.3,0.4,0.7,0.7,1c1.4,1.5,2,3.4,2.5,5.3c0.2,0.7,0.2,1.5,0,2.3C51.8,95.1,51.7,95.1,51.7,95z"/>
		<path class="st11" d="M23,64.5c1.5-2.6,3.3-5,4.3-7.9c0.1-0.1,0.1-0.1,0.2,0c-0.9,2.9-2.7,5.4-4.3,8C23.1,64.6,23.1,64.5,23,64.5z
			"/>
		<path class="st12" d="M50.1,55.1c0.4,0.8,0.6,1.7,1.1,2.5c1,1.8,1.7,3.8,3.1,5.4c0.1,0.1,0,0.1-0.1,0.1c-0.7-0.7-1.2-1.5-1.6-2.3
			c-0.7-1.3-1.4-2.7-2-4C50.2,56.3,50,55.7,50.1,55.1z"/>
		<path class="st13" d="M72.4,12.7c0,0,0.1-0.1,0.1-0.1c0.4,0.1,0.6,0.3,0.6,0.8c0,3.3,0,6.6,0,9.9c0,0.1,0,0.2,0,0.3
			c-0.3,0-0.5-0.2-0.7-0.3c0,0,0.1-0.1,0.1-0.1c0.2,0.1,0.4,0.2,0.4-0.2c0-3.2,0-6.4,0-9.6C72.9,12.9,72.6,12.9,72.4,12.7z"/>
		<path class="st13" d="M3.8,12.8c0,0.1,0,0.1,0,0.2c-0.1,0.2-0.1,0.3-0.1,0.5c0,3.2,0,6.3,0,9.5c0,0.1,0,0.1,0,0.2
			C4,23.3,4.1,23,4.4,23c0,0,0.1,0.1,0.1,0.1c-0.3,0.2-0.6,0.4-0.8,0.5c-0.2-0.2-0.1-0.4-0.1-0.6c0-3.2,0-6.3,0-9.5
			C3.5,13.2,3.4,12.9,3.8,12.8z"/>
		<path class="st14" d="M41.2,4.2c-2.8,0-5.6,0-8.5,0.1c-0.2,0-0.5,0.2-0.7-0.1c3.4-0.2,6.8-0.2,10.2-0.1C42,4.4,41.6,4.2,41.2,4.2z
			"/>
		<path class="st15" d="M60.2,74.6c1.2-0.3,1.1-1.2,1.2-2.1c0-0.2,0-0.4,0.1-0.5c0.1-0.1,0.2-0.2,0.3-0.2c0.2,0,0.2,0.2,0.2,0.3
			c0.4,1.1,0.6,2.2,0.5,3.3c0,0.1-0.1,0.1-0.1,0c-0.2-0.2-0.1-0.5-0.1-0.7c0-0.9-0.1-1.8-0.7-2.7c0,0.4-0.1,0.8-0.1,1.1
			c0,1-0.3,1.4-1.2,1.7C60.2,74.8,60.2,74.7,60.2,74.6z"/>
		<path class="st16" d="M63.3,70c-0.3-1.1-0.8-2.2-1.9-2.6c-0.8-0.3-1.2-0.7-1.2-1.6c0-0.5-0.5-1-0.7-1.5c-0.1-0.1,0-0.2,0.1-0.1
			c0.4,0.7,1,1.4,0.9,2.3c0,0.3,0.2,0.5,0.5,0.6c1.5,0.5,2.3,1.5,2.5,3C63.4,70.1,63.4,70.1,63.3,70z"/>
		<path class="st9" d="M14.1,74.4c-0.4,0.6-0.4,1.4-0.9,1.9c-0.1,0.2-0.2,0.5,0,0.6c0.3,0.2,0.3-0.2,0.4-0.3c0.4-0.2,0.6-0.6,1-0.8
			c0.5-0.3,0.7-0.9,0.9-1.4c0.1,0,0.1,0,0.2,0c-0.2,0.7-0.5,1.4-1.2,1.8c-0.3,0.2-0.6,0.5-0.9,0.8c-0.2,0.2-0.3,0.3-0.5,0.1
			c-0.2-0.1-0.2-0.3-0.2-0.5c0-0.2,0-0.4,0.1-0.5c0.5-0.6,0.5-1.3,0.9-1.9C14.1,74.2,14.2,74.3,14.1,74.4z"/>
		<path class="st17" d="M45.3,55.4c0.3-1.1,1-2.1,1.4-3.2c0.4-0.9,0.7-1.8,1-2.7c0.1,0,0.1,0,0.1,0c-0.4,1.4-1,2.7-1.6,4.1
			C46,54.3,45.4,55,45.4,56C45.1,55.8,45.3,55.6,45.3,55.4z"/>
		<path class="st18" d="M13.4,8.3c0,0-0.1-0.1-0.1-0.1c1.9-0.8,3.9-1.3,5.8-1.9c0.1,0,0.1,0.1,0.2,0.1C17.3,7.1,15.4,7.7,13.4,8.3z"
			/>
		<path class="st9" d="M39.9,21.7c-0.3-1.8-1.7-2.4-3-3.1c-0.5-0.2-1.1-0.3-1.6-0.4c0-0.1,0-0.2,0.2-0.1c1.6,0.2,2.9,1,4,2.1
			c0.4,0.4,0.5,0.9,0.6,1.4C40.1,21.7,40.1,21.8,39.9,21.7z"/>
		<path class="st19" d="M37.7,81c-0.3-0.1-0.2-0.3-0.2-0.5c0-1.9-0.1-3.7-0.1-5.6c0-0.1,0.1-0.1,0.1,0c0.2,1.3,0.1,2.7,0.2,4
			C37.7,79.6,37.7,80.3,37.7,81z"/>
		<path class="st20" d="M33.5,98.4c0.6,1.9,1.6,3.6,2.3,5.4c0.1,0.1,0,0.2-0.1,0.1c-0.8-1.8-1.8-3.5-2.3-5.4
			C33.3,98.4,33.4,98.4,33.5,98.4z"/>
		<path class="st21" d="M53.7,47.1c-0.2-1.4-0.7-2.7-1.2-4c-0.2-0.6,0-1.1,0.1-1.7c0.1,0.1,0,0.3,0.1,0.4c-0.2,0.7,0,1.3,0.3,1.9
			c0.4,0.9,0.8,1.9,0.8,3C53.7,46.8,53.8,47,53.7,47.1z"/>
		<path class="st22" d="M34.5,14.7C34.5,14.8,34.5,14.8,34.5,14.7c-0.1,0.2-0.3,0.1-0.4,0.2c-1.7,0.1-3.3,0.3-5,0.4
			c-0.1,0-0.1,0-0.2-0.1c0.8-0.3,1.6-0.2,2.4-0.3C32.4,14.8,33.5,14.7,34.5,14.7z"/>
		<path class="st23" d="M44,33c-1.9-0.1-3.7-1.4-4-3.1c-0.1-0.2-0.1-0.3,0-0.4c0,0,0.1,0.1,0.1,0.1c0.4,1.9,1.7,2.8,3.5,3.2
			C43.8,32.7,43.9,32.8,44,33z"/>
		<path class="st24" d="M51.7,37.2c-0.4-0.5-0.7-1.1-1.1-1.6c-0.5-0.7-1.2-1.3-2.1-1.6c-0.3-0.1-0.5-0.1-0.8-0.2c0,0,0-0.1,0-0.1
			c0,0,0,0,0,0c1.5,0.1,2.6,0.9,3.3,2.3c0.2,0.5,0.6,0.8,0.9,1.3C51.8,37.2,51.8,37.2,51.7,37.2z"/>
		<path class="st25" d="M40.1,29.4c0,0.1,0,0.3,0,0.4c-0.2-0.4-0.1-0.8-0.1-1.2c0-0.3,0.1-0.7,0-1c-0.2-1.1,0.4-2.1,0.4-3.2
			c0.2,0.4,0.2,0.9,0,1.3c-0.4,0.8-0.3,1.7-0.3,2.6C40.2,28.7,40.2,29.1,40.1,29.4z"/>
		<path class="st26" d="M18,17.3c1.6-0.5,3.2-0.9,4.8-1.1c0.1,0,0.2-0.1,0.3-0.1c0.1,0,0.1,0.1,0,0.2c-1.7,0.4-3.3,0.8-5,1.2
			C18,17.5,18,17.4,18,17.3z"/>
		<path class="st23" d="M63.3,70c0.1,0,0.1,0,0.2,0c0.3,0.3,0.6,0.6,0.9,0.9c0.2,0.2,0.2,0.4,0.1,0.7c-0.2,0.2-0.4,0.2-0.6,0.1
			c-0.4-0.1-0.6-0.4-0.9-0.6c-0.4-0.4-0.2,0.1-0.2,0.2c0,0.1-0.1,0.2-0.1,0.2c0-0.1-0.1-0.2-0.1-0.3c0-0.3-0.2-0.6,0.1-0.7
			c0.4-0.2,0.3,0.3,0.5,0.5c0.1,0.1,0.1,0.2,0.2,0.3c0.3,0.2,0.6,0.6,0.9,0.2c0.3-0.3-0.2-0.5-0.4-0.7C63.7,70.4,63.4,70.3,63.3,70z
			"/>
		<path class="st27" d="M41.8,85.1c0.3,0.2,0.3,0.5,0.3,0.8c0.3,1.4,1,2.6,1.9,3.7c0.1,0.1,0.1,0.1,0,0.2
			C42.7,88.5,42,86.9,41.8,85.1z"/>
		<path class="st28" d="M33.4,18.2c-1.8,0.4-2.8,1.7-3.7,3.1c-0.1,0-0.2,0-0.1-0.1c0.9-1.4,1.7-2.7,3.5-3
			C33.2,18.2,33.3,18.2,33.4,18.2z"/>
		<path class="st29" d="M16.3,75.1c-0.1,0.3-0.3,0.5-0.1,0.9c0.5-0.8,1.2-1.4,1-2.5c0-0.1,0-0.3,0.1-0.4c0.1,0,0.1,0.1,0.1,0.1
			c0.2,1-0.4,1.8-0.9,2.6c-0.1,0.2-0.2,0.4-0.5,0.3c-0.2-0.1-0.2-0.3-0.2-0.5c0.1-0.3,0.2-0.5,0.3-0.7C16.3,74.9,16.3,75,16.3,75.1z
			"/>
		<path class="st30" d="M39.2,112.6c0.1-0.1,0.3-0.1,0.5-0.1c0.5-0.1,0.9-0.4,0.9-1c0-0.6,0-1.2,0-1.8c0-0.1,0.1-0.1,0.1,0
			c0.2,0.7,0.1,1.5,0,2.2c-0.1,0.7-0.7,0.9-1.4,0.9C39.3,112.7,39.2,112.7,39.2,112.6z"/>
		<path class="st31" d="M54.1,63.1c0,0,0.1-0.1,0.1-0.1c0.9,1,1.7,2.1,2.5,3.2c0.1,0.2,0.2,0.4,0.2,0.6c-0.6-0.8-1.1-1.5-1.7-2.3
			C54.9,64.1,54.5,63.6,54.1,63.1z"/>
		<path class="st32" d="M23.2,16.3c0-0.1,0-0.1,0-0.2c1.3-0.2,2.6-0.5,3.9-0.7c0.2,0,0.4,0,0.5,0c0.2,0,0.4-0.2,0.4,0.1
			C26.4,15.8,24.8,16,23.2,16.3z"/>
		<path class="st33" d="M10.6,71.5c0.9,0.2,1.4-0.6,2.1-0.9c0.3-0.1,0.5-0.2,0.7-0.1c0.3,0.2,0,0.4,0,0.6c-0.1,0.2-0.1,0.5-0.2,0.7
			c-0.1,0-0.1-0.1-0.1-0.2c0-0.3,0.4-0.8,0.1-1c-0.3-0.3-0.5,0.3-0.8,0.3c-0.5,0.1-0.7,0.6-1.2,0.6C10.9,71.7,10.7,71.9,10.6,71.5z"
			/>
		<path class="st34" d="M27.9,74.9c0.3,1.2,0.8,2.3,1.5,3.2c0.2,0.2,0.3,0.4,0.4,0.7c0.1,0.1,0,0.2-0.1,0.1c-0.7-0.9-1.4-1.9-1.7-3
			c-0.1-0.3-0.2-0.7-0.2-1C27.8,74.8,27.8,74.8,27.9,74.9z"/>
		<path class="st34" d="M13.1,72.4c0,0.9-0.6,1.6-0.8,2.5c-0.1,0.2-0.4,0.5,0.1,0.6c0.1,0,0.2,0,0.1,0.1c-0.1,0.2-0.3,0.1-0.4,0
			c-0.2-0.2-0.2-0.4-0.1-0.6c0.4-0.6,0.4-1.3,0.8-1.9c0.2-0.2,0.1-0.6,0.2-0.8C13,72.4,13.1,72.4,13.1,72.4z"/>
		<path class="st35" d="M37.9,72.9c0.5,1.4,0.9,2.8,1.7,4c0.1,0.1,0.1,0.1,0,0.2c-0.9-1.2-1.3-2.7-1.7-4.1
			C37.7,72.9,37.7,72.9,37.9,72.9z"/>
		<path class="st36" d="M14.9,67.8c-0.8,0.4-1.5,0.9-2,1.6c-0.2,0.3-0.5,0.5-0.9,0.6c-0.1,0.1-0.2,0.1-0.3,0c0.6-0.3,1-0.6,1.5-1.1
			c0.5-0.6,1.1-1,1.8-1.2C14.9,67.7,15,67.8,14.9,67.8C14.9,67.8,14.9,67.8,14.9,67.8z"/>
		<path class="st37" d="M18.4,70.6c0-0.6,0.2-1,0.7-1.4c0.5-0.4,0.6-1,0.9-1.5c0.1-0.2,0.3-0.4,0.4-0.6c0.1-0.1,0.2,0,0.2,0.1
			c-0.7,0.8-0.9,1.9-1.8,2.6c-0.2,0.2-0.2,0.6-0.3,0.9C18.4,70.8,18.3,70.8,18.4,70.6z"/>
		<path class="st38" d="M38.7,92c-1-1.4-0.6-2.9-0.5-4.4c0.2,0.3,0,0.6,0.1,0.8c0,0.1,0,0.2,0,0.3c-0.3,1.1-0.1,2.1,0.4,3
			C38.9,92,38.8,92.1,38.7,92z"/>
		<path class="st39" d="M28.6,35.5c-0.6,0.2-1.1,0.5-1.7,0.7c-0.7,0.3-1.3,0.7-1.6,1.5c-0.1,0-0.2,0-0.1-0.1c0.2-0.6,0.6-1,1.1-1.3
			c0.7-0.4,1.5-0.8,2.3-0.9C28.6,35.4,28.6,35.4,28.6,35.5C28.6,35.5,28.6,35.5,28.6,35.5z"/>
		<path class="st40" d="M30.7,27.7c0.5,0.8,1.3,1.4,1.6,2.4c0.1,0.5,0.6,0.2,0.9,0.4c-0.4,0.2-0.9,0.2-1-0.2
			c-0.3-0.8-0.9-1.5-1.4-2.2c0-0.1-0.1-0.2-0.1-0.2C30.7,27.8,30.7,27.7,30.7,27.7z"/>
		<path class="st18" d="M19.2,60.3c0,0.4-0.1,0.8-0.3,1.2c-0.5,0.9-0.9,1.7-1.2,2.7c-0.1,0-0.1-0.1-0.1-0.1c0.2-0.7,0.4-1.5,0.9-2.1
			C18.9,61.3,18.8,60.7,19.2,60.3z"/>
		<path class="st41" d="M39.2,112.6c0,0,0.1,0.1,0.1,0.1c-0.9,0.6-1.7,1.3-2.2,2.3c-0.1,0.3-0.2,0.6-0.6,0.6
			C37.2,114.4,38.1,113.4,39.2,112.6z"/>
		<path class="st21" d="M57.8,6.6c-1.3-0.3-2.7-0.6-4-1c0.6-0.1,1.1,0.1,1.7,0.2C56.3,6,57.2,6.3,58,6.5C58,6.6,58,6.7,57.8,6.6z"/>
		<path class="st42" d="M40,100.3c-0.2-0.6-0.3-1.3-0.1-2c0.2-0.6,0.1-1.2,0.1-1.9c0-0.1,0.1-0.1,0.1,0c0.1,0.1,0.1,0.3,0.1,0.4
			c-0.1,0.3-0.1,0.6,0,0.9c-0.2,0.7-0.4,1.4-0.1,2.2C40.1,100.1,40.2,100.3,40,100.3z"/>
		<path class="st43" d="M48.3,85.4c-0.5-1.5-0.8-3-0.3-4.5c0.1,0.1,0.1,0.2,0,0.3c0,0.3,0,0.5,0,0.8c-0.1,0.4-0.1,0.8,0,1.2
			c0.1,0.6,0.2,1.1,0.3,1.7C48.4,85.1,48.4,85.3,48.3,85.4z"/>
		<path class="st44" d="M27.9,52.9c0.3-0.7,0.5-1.3,0.8-2c0-0.1,0.1-0.3,0.3-0.2c0.2,0,0.2,0.2,0.2,0.3c0,0.3,0.1,0.7,0.1,1
			c-0.4-0.2-0.1-0.6-0.3-0.9c-0.3,0.7-0.6,1.3-0.9,2C28,53,27.9,52.9,27.9,52.9z"/>
		<path class="st45" d="M60.2,74.6c0,0,0.1,0.1,0.1,0.1c-0.3,0.2-0.4,0.5-0.4,0.9c0,0.2-0.1,0.4-0.3,0.4c-0.2,0-0.4-0.1-0.4-0.3
			c-0.1-0.5-0.2-1.1,0.3-1.5c0,0.4-0.2,0.9-0.1,1.3c0,0.1,0,0.3,0.2,0.3c0.2,0,0.2-0.2,0.2-0.3C59.8,75.1,59.8,74.8,60.2,74.6z"/>
		<path class="st46" d="M24.5,5.4c-1.2,0.2-2.4,0.5-3.6,0.7c0,0,0-0.1,0-0.1c0,0,0-0.1,0-0.1c1.2-0.3,2.4-0.6,3.6-0.7
			C24.5,5.3,24.5,5.3,24.5,5.4C24.5,5.4,24.5,5.4,24.5,5.4z"/>
		<path class="st27" d="M49.1,48.8c0.4,1.1,1,2.1,0.8,3.4c-0.3,0-0.1-0.3-0.2-0.4c0.1-1-0.5-1.9-0.7-2.8
			C48.9,48.8,49,48.8,49.1,48.8z"/>
		<path class="st47" d="M62.6,71.4c0-0.1,0.1-0.1,0.1-0.2c0.2,0.6,0.2,1.3,0.4,1.9c0.2,0.6,0,1.3-0.4,1.8c0,0,0,0,0-0.1
			C63.2,73.8,62.8,72.6,62.6,71.4z"/>
		<path class="st48" d="M47.9,72.7c-0.3-1-0.7-2.1-0.9-3.1l0,0c0.5,0.9,0.7,2,1,3C48,72.6,48,72.7,47.9,72.7z"/>
		<path class="st10" d="M33.9,31.6c0,0.6,0,1.3-0.8,1.6c-0.4,0.2-0.5,0.8-1,1c-0.1,0.1-0.2,0-0.1-0.1c0.6-0.4,0.8-1.1,1.5-1.4
			c0.3-0.2,0-0.8,0.3-1.2C33.9,31.5,33.9,31.6,33.9,31.6z"/>
		<path class="st49" d="M50,15.5c1.1,0.1,2.2,0.3,3.2,0.5c-0.1,0.1-0.2,0.1-0.3,0.1c-1.1-0.2-2.2-0.4-3.2-0.5
			C49.7,15.4,49.8,15.5,50,15.5z"/>
		<path class="st50" d="M41.2,4.2c0.4-0.1,0.7,0.1,1.1-0.1c0.9,0.1,1.7,0,2.6,0.2c0,0.1-0.1,0.1-0.1,0.1C43.6,4.3,42.4,4.4,41.2,4.2
			z"/>
		<path class="st51" d="M46.4,99.4c0.3,1.1,1,2,1,3.2c0,0.1-0.1,0.1-0.1,0c-0.1-1-0.8-1.8-0.9-2.8C46.3,99.7,46.3,99.5,46.4,99.4z"
			/>
		<path class="st52" d="M30.7,27.7c0,0.1,0,0.1,0,0.2c-0.2-0.2-0.3-0.4-0.3-0.6c0.1-0.7-0.1-1.3-0.6-1.7c-0.2-0.2-0.3-0.5-0.4-0.8
			c0.1-0.1,0.1-0.1,0.2,0c0.1,0.3,0.3,0.6,0.6,0.9C30.7,26.2,30.6,27,30.7,27.7z"/>
		<path class="st53" d="M31.8,82.3c0.5,1.3,0.3,2.6,0.3,3.9c0,0.1,0,0.2-0.1,0.2c-0.1-1.3,0-2.6-0.3-3.9
			C31.6,82.3,31.7,82.3,31.8,82.3z"/>
		<path class="st54" d="M45.3,55.4c0,0.2,0,0.4,0.1,0.6c0.1,1,0.3,2,0,3c-0.1,0.2-0.1,0.3-0.3,0.4c0.3-1,0.3-2.1,0.1-3.2
			C45.2,55.9,45.1,55.6,45.3,55.4z"/>
		<path class="st18" d="M56.8,53.3c-0.7-0.9-1.4-1.7-2.1-2.6c0.1-0.1,0.1-0.1,0.2,0c0.7,0.7,1.4,1.5,1.9,2.4
			C56.9,53.1,56.9,53.2,56.8,53.3z"/>
		<path class="st55" d="M58.5,72.5c0.1,0.6-0.2,1.3,0.2,1.9c0.2-0.2,0.1-0.5,0.2-0.6c0.1,0.1,0.1,0.2,0.1,0.3c0,0.2,0.1,0.6-0.2,0.6
			c-0.3,0.1-0.4-0.3-0.5-0.5c-0.3-0.6,0-1.3,0-1.9C58.4,72.3,58.5,72.3,58.5,72.5z"/>
		<path class="st56" d="M25.2,37.6c0,0,0.1,0.1,0.1,0.1c-0.8,1.1-0.7,2.4-0.7,3.7c-0.1,0-0.2,0-0.2-0.1c0-0.7-0.1-1.5,0-2.2
			C24.6,38.5,24.9,38,25.2,37.6z"/>
		<path class="st18" d="M39.5,77.1c0-0.1,0-0.1,0-0.2c0.6,0.9,1,1.9,1.4,2.9c0.1,0.1,0,0.2-0.1,0.2C40.3,79,39.9,78.1,39.5,77.1z"/>
		<path class="st57" d="M17.6,65c0,0.5-0.3,0.9-0.6,1.3c-0.4,0.5-0.7,0.9-1.1,1.4c-0.1-0.1-0.1-0.2,0-0.3c0.2-0.5,0.6-0.8,0.9-1.2
			c0.3-0.4,0.6-0.8,0.7-1.3C17.5,64.9,17.5,65,17.6,65z"/>
		<path class="st58" d="M31.8,82.3c0,0-0.1,0.1-0.1,0.1c-0.5-0.9-1-1.8-1.5-2.7c-0.1-0.1,0-0.2,0.1-0.1
			C30.8,80.5,31.3,81.4,31.8,82.3z"/>
		<path class="st59" d="M47.5,103.3c0.2,1,0.4,2,0.4,3c0,0.1-0.1,0.1-0.1,0c-0.1-0.9-0.2-1.8-0.4-2.7
			C47.4,103.5,47.4,103.3,47.5,103.3z"/>
		<path class="st60" d="M57.8,6.6c0.1,0,0.1-0.1,0.2-0.1C59,6.8,60,7,60.9,7.4c0,0.1,0,0.1,0,0.2C59.9,7.2,58.9,6.9,57.8,6.6z"/>
		<path class="st61" d="M54.1,113.4c0.4-0.3,0.8,0.1,1.2-0.1c0.3-0.1,0.5-0.1,0.3-0.6c-0.2-0.3-0.4-0.7-0.2-1.1c0,0,0.1,0,0.1,0
			c0.1,0.4,0.2,0.8,0.3,1.1c0.2,0.5,0,0.7-0.4,0.7c-0.4,0.1-0.8,0-1.3,0C54.1,113.5,54.1,113.5,54.1,113.4
			C54.1,113.4,54.1,113.4,54.1,113.4z"/>
		<path class="st62" d="M52.5,5.4c-0.9-0.1-1.9-0.2-2.8-0.4c0,0-0.1-0.1-0.1-0.1c0,0,0,0,0,0c1.1,0,2.2,0.3,3.3,0.5
			C52.8,5.5,52.6,5.5,52.5,5.4z"/>
		<path class="st63" d="M27.4,67.9c0.1,1.1,0.2,2.2,0.2,3.3c0,0.1-0.1,0.1-0.1,0c-0.2-0.9-0.1-1.8-0.2-2.7
			C27.3,68.3,27.2,68.1,27.4,67.9z"/>
		<path class="st64" d="M45.8,15.1c0.1,0,0.1-0.1,0.2-0.1c1,0.1,2,0.1,3,0.4c-0.1,0.1-0.3,0-0.4,0.1C47.7,15.4,46.7,15.3,45.8,15.1z
			"/>
		<path class="st65" d="M49.1,48.8c0,0-0.1,0.1-0.1,0.1c-0.2-0.5-0.4-0.9-0.5-1.4c-0.2-0.5-0.2,0-0.3,0c-0.2-0.2-0.1-0.4-0.1-0.6
			c0-0.2,0.1-0.3,0.2-0.3c0.2,0,0.2,0.1,0.2,0.3C48.7,47.6,48.9,48.2,49.1,48.8z"/>
		<path class="st66" d="M48.3,77.5c-0.1-0.9,0.2-1.8,0-2.7c0-0.1,0.1-0.1,0.1,0c0.2,0.9,0.2,1.8,0,2.7
			C48.4,77.5,48.4,77.5,48.3,77.5z"/>
		<path class="st67" d="M59,74.1c0-0.1-0.1-0.2-0.1-0.3c0-0.2,0.1-0.4,0.2-0.6c0.1-0.2,0-0.6,0.3-0.5c0.3,0,0.3,0.4,0.3,0.6
			c0,0.3,0,0.5-0.1,0.8c-0.3-0.3,0-0.6-0.2-1C59.1,73.4,59,73.7,59,74.1z"/>
		<path class="st33" d="M51.2,105.7c-0.1-0.9-0.7-1.6-0.7-2.5c0-0.3,0-0.5,0-0.8c0,0,0.1,0,0.1,0c-0.1,0.8,0.2,1.4,0.4,2.1
			c0.1,0.3,0.2,0.7,0.3,1.1C51.3,105.8,51.2,105.8,51.2,105.7z"/>
		<path class="st68" d="M32.9,90.7c-0.3,1.1-0.2,2.2-0.1,3.4c-0.1,0-0.1,0-0.2,0c-0.1-0.2,0-0.4-0.1-0.5c0-1-0.1-1.9,0.2-2.8
			C32.8,90.6,32.8,90.6,32.9,90.7z"/>
		<path class="st69" d="M45.7,62.7c-0.1-0.8-0.5-1.6-0.7-2.4c-0.1-0.2-0.2-0.5,0-0.7c0.1,0.8,0.5,1.5,0.7,2.3
			c0.1,0.3,0.1,0.6,0.1,0.9C45.8,62.8,45.8,62.8,45.7,62.7z"/>
		<path class="st70" d="M51,111.7c0,0.2,0,0.3,0,0.5c0.1,0.1,0.1,0.1,0,0.2c0,0-0.1-0.1-0.1-0.1c0.2-1.2-0.7-1.9-1.3-2.8
			c-0.1-0.1,0-0.2,0.1-0.1c0.4,0.5,0.9,1,1.2,1.6C51.1,111.2,51.1,111.4,51,111.7z"/>
		<path class="st71" d="M29.2,52.2c0.5,1,0.2,1.8-0.2,2.7c-0.1,0.1-0.1,0.1-0.1,0C29.2,54,29.2,53.1,29.2,52.2z"/>
		<path class="st72" d="M23,64.5c0,0,0.1,0.1,0.1,0.1c-0.6,0.8-1.4,1.5-2.2,2.2c-0.1-0.1-0.1-0.1,0-0.2C21.7,65.9,22.4,65.2,23,64.5
			z"/>
		<path class="st73" d="M58.5,17.3c-0.1,0-0.2,0.1-0.3,0.1c-0.8-0.2-1.6-0.4-2.3-0.6c0-0.1,0.1-0.1,0.2-0.1
			C56.8,16.8,57.7,17,58.5,17.3z"/>
		<path class="st74" d="M27.5,71.2c0,0,0.1,0,0.1,0c0.1,0.9,0.2,1.9,0.2,2.8c0,0.2,0.2,0.4-0.1,0.4C27.6,73.4,27.4,72.3,27.5,71.2z"
			/>
		<path class="st75" d="M18.4,70.6c0,0.1,0.1,0.1,0.1,0.2c-0.2,0.9-0.6,1.7-1.1,2.4c0,0-0.1-0.1-0.1-0.1
			C17.8,72.3,18.2,71.5,18.4,70.6z"/>
		<path class="st17" d="M55.2,110.3c0-0.6-0.3-1-0.8-1.2c-0.3-0.1-0.5-0.3-0.7-0.5c-0.1-0.1,0-0.2,0.1-0.1c0.4,0.3,0.8,0.5,1.1,0.8
			c0.3,0.3,0.6,0.6,0.4,1.1C55.3,110.4,55.3,110.4,55.2,110.3z"/>
		<path class="st76" d="M24.8,45.6c-0.2,0.9-0.4,1.7-0.8,2.5c-0.1,0-0.1-0.1-0.1-0.2c0.3-0.9,0.6-1.8,0.9-2.7
			C24.9,45.4,24.8,45.5,24.8,45.6z"/>
		<path class="st71" d="M58.9,61.8c-0.4-0.8-0.4-1.6-0.5-2.4c0-0.1,0.1-0.1,0.1,0c0.2,0.8,0.3,1.5,0.5,2.3
			C59.1,61.8,59,61.8,58.9,61.8z"/>
		<path class="st77" d="M48.1,4.7c-0.8,0-1.7-0.1-2.5-0.3c0.1-0.1,0.3,0,0.4-0.1c0.8,0.1,1.7,0,2.5,0.4C48.3,4.8,48.2,4.8,48.1,4.7z
			"/>
		<path class="st29" d="M11.6,70c0.1,0,0.2,0,0.3,0c-0.5,0.5-1,0.9-1.5,1.4c-0.5,0-0.3-0.4-0.1-0.4C10.9,70.8,11.2,70.3,11.6,70z"/>
		<path class="st78" d="M35.9,111.5c-0.6,0.5-1.2,1.1-2,1.1c-0.1,0.1-0.2,0-0.1-0.1c0.8-0.1,1.4-0.7,2-1.1
			C35.9,111.3,35.9,111.4,35.9,111.5z"/>
		<path class="st67" d="M19.9,58c-0.2,0.7-0.4,1.4-0.7,2.2c-0.3-0.3,0-0.7,0.1-1c0.1-0.5,0.4-1,0.6-1.5C20,57.8,20,57.9,19.9,58z"/>
		<path class="st79" d="M54.9,50.7c-0.1,0-0.1,0-0.2,0c-0.7-0.5-1.2-1.1-1-2.1c0-0.1,0.1-0.1,0.1,0C53.8,49.5,54.4,50.1,54.9,50.7z"
			/>
		<path class="st39" d="M22.9,52.4c-0.5,0.7-1,1.3-1.6,1.9c-0.1,0.1-0.1,0-0.2,0c0.6-0.7,1.1-1.3,1.7-2
			C22.8,52.3,22.8,52.4,22.9,52.4z"/>
		<path class="st28" d="M56.8,53.3c0-0.1,0-0.1,0-0.2c0.6,0.7,0.8,1.5,0.9,2.3c0.1,0.1,0,0.2-0.1,0.1C57.4,54.8,57.3,54,56.8,53.3z"
			/>
		<path class="st80" d="M44.9,94.6c0,0.7,0,1.4,0,2c-0.1,0.1-0.1,0.1-0.2,0c-0.1-0.7-0.1-1.4,0.1-2C44.8,94.6,44.9,94.6,44.9,94.6z"
			/>
		<path class="st81" d="M46.4,67.6c-0.6-1-0.4-2.1-0.4-3.1c0-0.1,0.1-0.1,0.1,0C46.1,65.5,46.3,66.6,46.4,67.6z"/>
		<path class="st40" d="M28.9,54.9c0,0,0.1,0,0.1,0c-0.2,0.8-0.8,1.4-1,2.2c-0.1,0-0.1-0.1-0.1-0.2C28,56.1,28.5,55.6,28.9,54.9z"/>
		<path class="st82" d="M14.1,74.4c0-0.1-0.1-0.1-0.1-0.2c0.1-0.4,0-0.8,0.3-1.2c0.1-0.2,0.1-0.2-0.3-0.2c-0.1,0-0.2,0-0.1-0.2
			c0.1-0.4,0.3-0.2,0.5-0.1c0.2,0.1,0.4,0.2,0.2,0.4C14.2,73.4,14.3,73.9,14.1,74.4z"/>
		<path class="st83" d="M49.7,51.8c0.1,0.1,0.1,0.3,0.2,0.4c0.1,0.8,0.1,1.7,0.2,2.5c-0.2,0-0.2-0.2-0.3-0.3
			C49.8,53.5,49.8,52.6,49.7,51.8z"/>
		<path class="st84" d="M41.1,80.8c0.3,0.8,0.5,1.5,0.5,2.4c0,0.1,0.1,0.3-0.1,0.3c0-0.9-0.2-1.7-0.5-2.5
			C40.9,80.8,41,80.8,41.1,80.8z"/>
		<path class="st85" d="M37.2,72.9c-0.2-0.4-0.1-0.8-0.1-1.2c0-0.2-0.1-0.4,0.1-0.4c0.3,0,0.3,0.2,0.3,0.4c0,0.1,0,0.2,0,0.3
			c-0.2,0.1-0.1,0.3-0.2,0.4C37.2,72.6,37.3,72.8,37.2,72.9z"/>
		<path class="st86" d="M33.2,113.9c0,0.7-0.6,1.3-0.6,2c0,0.1-0.1,0.1-0.1,0c-0.2-0.3,0-0.5,0.1-0.7c0.2-0.5,0.4-1,0.5-1.6
			C33.3,113.6,33.2,113.7,33.2,113.9z"/>
		<path class="st87" d="M51,112.4c0-0.1,0-0.1,0-0.2c0.2,0.3,0.4,0.6,0.9,0.6c0.4,0,0.7,0.3,0.9,0.6c0,0.1-0.1,0.1-0.2,0.1
			c-0.3-0.3-0.7-0.6-1.2-0.6C51.2,112.8,51,112.7,51,112.4z"/>
		<path class="st13" d="M44.9,94.6c0,0-0.1,0-0.1,0c0-1.1,0-2.3,0-3.4c0.3,0.4,0.1,0.8,0.1,1.2C44.9,93.2,44.9,93.9,44.9,94.6z"/>
		<path class="st88" d="M22.9,52.4c0,0-0.1-0.1-0.1-0.1c0.8-0.6,0.8-1.5,0.8-2.4c0.3,0.1,0.1,0.3,0.1,0.4
			C23.8,51.2,23.6,51.9,22.9,52.4z"/>
		<path class="st89" d="M13.8,72.7c0,0.1,0.1,0.1,0.1,0.2c-0.1,0.8-0.4,1.4-0.8,2c-0.1,0-0.2,0-0.1-0.1
			C13.4,74.1,13.6,73.4,13.8,72.7z"/>
		<path class="st38" d="M47.7,106.2c0,0,0.1,0,0.1,0c0.2,0.7,0.6,1.3,1.1,1.9c-0.1,0.1-0.1,0.1-0.2,0
			C48.2,107.6,47.8,107,47.7,106.2z"/>
		<path class="st90" d="M38.3,86.8c-0.1-0.7-0.2-1.5-0.4-2.2c0-0.1,0.1-0.1,0.1-0.1c0.3,0.6,0.3,1.3,0.4,1.9
			C38.3,86.5,38.4,86.7,38.3,86.8z"/>
		<path class="st49" d="M51.2,105.7c0.1,0,0.1,0,0.2,0c0.5,0.5,1,1.1,1.4,1.6c0.1,0.1,0,0.2-0.1,0.1
			C52.2,106.8,51.5,106.4,51.2,105.7z"/>
		<path class="st91" d="M24.8,45.6c0-0.1,0-0.2,0-0.4c0-0.6,0-1.2,0-1.8c0-0.2-0.2-0.3,0.1-0.4C24.9,43.9,25.2,44.7,24.8,45.6z"/>
		<path class="st92" d="M16.3,75.1c0-0.1,0-0.2,0-0.2c0-0.5,0.5-1.1-0.1-1.6c-0.1,0-0.2,0-0.1-0.1c0.4,0,0.8,0.5,0.7,0.9
			C16.6,74.4,16.5,74.8,16.3,75.1z"/>
		<path class="st57" d="M38.7,92c0,0,0.1-0.1,0.1-0.1c0.3,0.6,0.6,1.3,0.9,1.9c0,0.1-0.1,0.1-0.1,0.1C39.3,93.3,39,92.7,38.7,92z"/>
		<path class="st93" d="M47.1,69.6C47.1,69.6,47,69.6,47.1,69.6c-0.4-0.5-0.5-1.2-0.6-1.8C46.9,68.3,46.9,69,47.1,69.6z"/>
		<path class="st94" d="M37.2,107.1c0.1,0.7,0,1.5,0.3,2.2c0.1,0.2,0,0.4-0.3,0.5c0,0-0.1,0-0.1,0c0.1-0.2,0.3-0.3,0.2-0.6
			c-0.2-0.7-0.2-1.4-0.2-2.1C37.1,107,37.1,107,37.2,107.1z"/>
		<path class="st95" d="M32.9,90.7c0,0-0.1,0-0.1,0c0-0.2,0-0.4,0-0.6c0-0.2,0.1-0.4,0-0.7c-0.1-0.6-0.1-1.1,0-1.7
			C32.9,88.8,33.1,89.7,32.9,90.7z"/>
		<path class="st82" d="M35.8,103.9c0,0,0.1-0.1,0.1-0.1c0.3,0.6,0.7,1.2,0.9,1.9c0,0.1-0.1,0.1-0.2,0
			C36.3,105.1,36,104.5,35.8,103.9z"/>
		<path class="st96" d="M51.7,95c0,0,0.1,0,0.1,0c0,0.5,0,1.1,0,1.6c0,0.2,0,0.5-0.2,0.6C51.6,96.5,51.7,95.8,51.7,95z"/>
		<path class="st97" d="M52.6,39.8c-0.2-0.7-0.3-1.4-0.5-2c-0.1-0.1,0-0.2,0-0.2c0.5,0.6,0.6,1.2,0.5,2
			C52.7,39.6,52.7,39.7,52.6,39.8z"/>
		<path class="st98" d="M27.1,61.3c0,0.7-0.2,1.4-0.1,2.1c0,0.1,0.1,0.3-0.1,0.3c-0.1-0.9,0-1.8,0.1-2.7
			C27.2,61,27.1,61.1,27.1,61.3z"/>
		<path class="st99" d="M40.2,103.6c0-0.7,0-1.5,0-2.2c-0.1-0.1-0.1-0.3,0.1-0.3c0.1,1,0.1,2.1,0,3.1
			C40,104.1,40.2,103.8,40.2,103.6z"/>
		<path class="st100" d="M23.7,50.3c0-0.1,0-0.3-0.1-0.4c0.1-0.6,0.1-1.3,0.3-1.9c0,0.1,0.1,0.1,0.1,0.2
			C23.9,48.9,23.8,49.6,23.7,50.3z"/>
		<path class="st101" d="M47.9,49.5c0,0-0.1,0-0.1,0c0.1-0.6-0.1-1.2,0.4-1.7C48,48.3,48.1,48.9,47.9,49.5z"/>
		<path class="st102" d="M48.5,74.7c0,0-0.1,0-0.1,0c-0.1-0.7-0.3-1.3-0.4-2c0,0,0.1-0.1,0.1-0.1C48.2,73.3,48.4,74,48.5,74.7z"/>
		<path class="st103" d="M16.1,18.1C16,18,15.9,18,15.8,18c0.5-0.3,1.1-0.4,1.6-0.5c0.1,0,0.1,0,0.2,0.1
			C17.1,17.7,16.6,17.9,16.1,18.1z"/>
		<path class="st57" d="M50.6,102.5c0,0-0.1,0-0.1,0c0.1-0.6,0.2-1.2,0.4-1.8C51.1,101.3,50.7,101.9,50.6,102.5z"/>
		<path class="st104" d="M58.9,61.8c0,0,0.1-0.1,0.1-0.1c0.3,0.5,0.4,1.1,0.4,1.7c0.1,0.1,0,0.2-0.1,0.2
			C59.1,62.9,59,62.4,58.9,61.8z"/>
		<path class="st105" d="M48.3,77.5c0,0,0.1,0,0.1,0c0,0.7,0.1,1.5-0.1,2.2c0,0.1-0.1,0.1-0.1,0C48.2,78.9,48.3,78.2,48.3,77.5z"/>
		<path class="st106" d="M29.1,4.7c-0.6,0.1-1.3,0.2-1.9,0.3c-0.1-0.1-0.2,0-0.3-0.1c0.7-0.2,1.3-0.3,2-0.3
			C29.1,4.5,29.1,4.6,29.1,4.7z"/>
		<path class="st60" d="M33.5,98.4c0,0-0.1,0.1-0.1,0.1c-0.3-0.6-0.5-1.3-0.6-2c0,0,0,0,0.1-0.1c0,0,0.1,0,0.1,0
			C33.2,97.2,33.4,97.8,33.5,98.4z"/>
		<path class="st107" d="M33.4,18.2c-0.1,0-0.2,0-0.3,0c0.8-0.3,1.6-0.4,2.4-0.1c-0.1,0-0.1,0.1-0.2,0.1
			C34.7,18,34.1,18.2,33.4,18.2z"/>
		<path class="st86" d="M29.6,24.7c-0.1,0-0.1,0-0.2,0c-0.3-0.5-0.3-1-0.2-1.5c-0.1-0.3-0.1-0.7,0-1l0,0c0,0,0.1,0,0.1,0
			C29.3,23.1,29.3,23.9,29.6,24.7z"/>
		<path class="st108" d="M40.6,108.5c-0.5-0.5-0.3-1.2-0.5-1.8c0-0.1,0.1-0.1,0.1,0C40.4,107.4,40.5,108,40.6,108.5z"/>
		<path class="st109" d="M21.1,54.3c0.1,0,0.1,0,0.2,0c-0.5,0.5-0.6,1.2-0.9,1.8C20.3,55.4,20.5,54.8,21.1,54.3z"/>
		<path class="st110" d="M32.8,116c0.6-0.2,1.1,0.3,1.8,0.3c0.1,0,0.1,0,0.2,0.1c-0.3,0.2-0.6,0.2-0.9,0c-0.2-0.1-0.3-0.2-0.5-0.2
			C33.1,116.1,32.8,116.4,32.8,116z"/>
		<path class="st111" d="M27.4,67.9c-0.1,0.2,0,0.4-0.1,0.6c0-0.9,0-1.8-0.1-2.7c0,0,0.1,0,0.1,0C27.3,66.5,27.3,67.2,27.4,67.9z"/>
		<path class="st112" d="M28,57.6c0,0.6,0,1.2-0.5,1.7c0.1-0.6,0.2-1.1,0.4-1.7C27.9,57.5,28,57.5,28,57.6z"/>
		<path class="st40" d="M43.9,89.8c0-0.1,0-0.1,0-0.2c0.4,0.5,0.9,0.9,0.8,1.6C44.5,90.8,44.2,90.3,43.9,89.8z"/>
		<path class="st51" d="M31.5,34.6c-0.5,0.3-1.1,0.5-1.6,0.8c-0.1,0-0.1-0.1,0-0.2c0.4-0.3,0.9-0.6,1.5-0.8
			C31.5,34.4,31.5,34.5,31.5,34.6z"/>
		<path class="st113" d="M52.6,113.5c0.1,0,0.1-0.1,0.2-0.1c0.4,0,0.9,0,1.3,0c0,0,0,0.1,0,0.1C53.6,113.8,53.1,113.6,52.6,113.5z"
			/>
		<path class="st114" d="M24.5,39c0,0.8,0,1.6,0,2.3c0.1,0.1,0.1,0.2,0,0.3C24.3,40.8,24.3,39.9,24.5,39z"/>
		<path class="st115" d="M46.2,33.4c-0.6-0.1-1.2-0.1-1.7-0.4c0.7-0.1,1.4,0.1,2.1,0.4C46.5,33.5,46.4,33.5,46.2,33.4z"/>
		<path class="st116" d="M50.9,100.6c0-0.6,0.2-1.2,0.4-1.8c0.1,0.1,0.1,0.2,0.1,0.3C51.2,99.6,51.3,100.2,50.9,100.6z"/>
		<path class="st117" d="M19.9,58c0-0.1,0-0.2,0-0.3c0.1-0.5,0.2-1.1,0.4-1.6C20.4,56.8,20.1,57.4,19.9,58z"/>
		<path class="st51" d="M52.6,107.5c0,0,0.1-0.1,0.1-0.1c0.4,0.4,0.7,0.7,1.1,1.1c0,0-0.1,0.1-0.1,0.1
			C53.3,108.2,52.9,107.9,52.6,107.5z"/>
		<path class="st118" d="M57,67.1c0.1,0.5,0.4,0.9,0.6,1.3c0,0.1,0,0.1-0.1,0.1C57.2,68.1,56.6,67.8,57,67.1z"/>
		<path class="st119" d="M57.6,69.7c0.2,0.5,0.3,1,0.6,1.5c-0.1,0.1-0.1,0.1-0.2,0c-0.3-0.4-0.4-0.9-0.5-1.4
			C57.6,69.8,57.6,69.7,57.6,69.7z"/>
		<path class="st120" d="M40.2,103.6c0.1,0.2,0,0.4,0.1,0.6c0,0.4,0,0.7-0.1,1.1c0,0.1-0.1,0.1-0.1,0
			C40.1,104.7,40,104.2,40.2,103.6z"/>
		<path class="st121" d="M33.2,113.9c0-0.1,0-0.2-0.1-0.3c0.1-0.4,0.1-1,0.7-1.1c0,0,0.1,0.1,0.1,0.1
			C33.2,112.8,33.3,113.4,33.2,113.9z"/>
		<path class="st28" d="M51.4,99.1c0-0.1-0.1-0.2-0.1-0.3c0.1-0.5,0-1,0.4-1.4C51.6,98,51.5,98.5,51.4,99.1z"/>
		<path class="st122" d="M56,16.6c-0.1,0-0.1,0.1-0.2,0.1c-0.5-0.1-1.1-0.2-1.6-0.3c0-0.3,0.2-0.2,0.3-0.1
			C55.1,16.3,55.5,16.6,56,16.6z"/>
		<path class="st58" d="M32,86.4c0-0.1,0.1-0.1,0.1-0.2c0.1,0.6,0.4,1.1,0.6,1.6C32.1,87.5,32.1,86.9,32,86.4z"/>
		<path class="st123" d="M32.1,4.2c0.2,0.2,0.5,0.1,0.7,0.1c-0.5,0.2-1.1,0.1-1.6,0.1c-0.2,0-0.4,0.2-0.6-0.1
			C31.1,4.2,31.6,4.4,32.1,4.2z"/>
		<path class="st124" d="M16,73.1c0,0,0.1,0.1,0.1,0.1c-0.3,0.4-0.2,0.8-0.4,1.2c-0.1,0-0.1,0-0.2,0C15.7,74,15.6,73.5,16,73.1z"/>
		<path class="st72" d="M52.6,39.8c0-0.1,0-0.2,0-0.3c0.3,0.8,0.1,1.5,0.1,2.3c-0.1-0.1-0.1-0.3-0.1-0.4
			C52.6,40.8,52.6,40.3,52.6,39.8z"/>
		<path class="st29" d="M48.3,85.4c0-0.2,0-0.3,0-0.5c0.2,0.5,0.3,1,0.4,1.5c0,0-0.1,0.1-0.1,0.1C48.4,86.3,48.3,85.9,48.3,85.4z"/>
		<path class="st125" d="M62.3,75.4c0,0,0.1,0,0.1,0c0.3,0.1,0.1-0.3,0.3-0.3c0.1,0.1,0.1,0.2,0.1,0.3c0,0.2,0,0.5-0.2,0.5
			C62.4,75.9,62.4,75.7,62.3,75.4z"/>
		<path class="st126" d="M20.9,5.9c0,0.1,0,0.1,0,0.2c-0.5,0.2-1.1,0.3-1.6,0.4c-0.1,0-0.1-0.1-0.2-0.1C19.7,6.2,20.3,6.1,20.9,5.9z
			"/>
		<path class="st127" d="M27.9,52.9c0,0,0.1,0.1,0.1,0.1c-0.2,0.6-0.3,1.2-0.3,1.9c-0.3-0.1-0.2-0.3-0.1-0.4
			C27.5,53.9,27.7,53.4,27.9,52.9z"/>
		<path class="st128" d="M27.3,65.8c0,0-0.1,0-0.1,0C27,65.4,27,65,27,64.6c0-0.1,0.1-0.1,0.1-0.2C27.2,64.9,27.2,65.4,27.3,65.8z"
			/>
		<path class="st129" d="M41.4,83.5c0-0.1,0.1-0.2,0.1-0.3c0.1,0.5,0.2,0.9,0.2,1.4C41.3,84.4,41.6,83.9,41.4,83.5z"/>
		<path class="st130" d="M58,71.2c0.1,0,0.1,0,0.2,0c0,0.4,0.4,0.8,0.2,1.3c0-0.1-0.1-0.1-0.1-0.2C58.2,72,58,71.6,58,71.2z"/>
		<path class="st131" d="M37.1,109.8c0,0,0.1,0,0.1,0c-0.3,0.4-0.5,0.9-0.9,1.3c-0.1,0-0.2,0-0.1-0.1
			C36.5,110.6,36.7,110.1,37.1,109.8z"/>
		<path class="st22" d="M46.2,33.4c0.1,0,0.2,0,0.3,0c0.4,0.1,0.8,0.2,1.2,0.3c0,0,0,0.1,0,0.1C47.2,33.7,46.7,33.7,46.2,33.4z"/>
		<path class="st132" d="M37.2,72.9c0-0.1,0-0.3,0.1-0.4c0,0.5,0.1,1,0.1,1.5c-0.1,0.1,0,0.2-0.1,0.3C37.1,73.8,37.2,73.3,37.2,72.9
			z"/>
		<path class="st133" d="M38.3,86.8c0-0.1,0-0.3,0.1-0.4c0,0.7,0,1.4,0,2.1c-0.2-0.3-0.1-0.6-0.1-0.8C38.3,87.4,38.3,87.1,38.3,86.8
			z"/>
		<path class="st111" d="M37.8,82.9c0-0.5-0.1-1.1-0.1-1.6c0.5,0.5,0.2,1.1,0.3,1.6C37.8,82.9,37.8,82.9,37.8,82.9z"/>
		<path class="st109" d="M36.6,105.7c0.1,0,0.1,0,0.2,0c0.2,0.4,0.3,0.9,0.4,1.4c-0.1,0-0.1,0-0.2,0
			C36.9,106.6,36.8,106.2,36.6,105.7z"/>
		<path class="st19" d="M53.8,48.7L53.8,48.7c-0.1,0-0.1,0-0.1,0c0-0.5,0-1.1,0-1.6c0-0.1,0-0.3,0.1-0.4
			C53.8,47.3,53.8,48,53.8,48.7z"/>
		<path class="st134" d="M55.2,110.3c0.1,0,0.1,0,0.2,0c-0.1,0.5,0.5,0.9,0.1,1.3c0,0-0.1,0-0.1,0C55.6,111.2,55.1,110.8,55.2,110.3
			z"/>
		<path class="st135" d="M44.7,96.7c0.1,0,0.1,0,0.2,0c0.2,0.4,0.4,0.8,0.6,1.2c0.1,0.1,0,0.2,0,0.2C45.1,97.6,44.8,97.2,44.7,96.7z
			"/>
		<path class="st97" d="M58.1,58c-0.1-0.5-0.4-0.9-0.1-1.4c0.2,0.4,0.2,0.8,0.3,1.3C58.2,57.9,58.2,58,58.1,58z"/>
		<path class="st13" d="M40.2,96.5L40.2,96.5c-0.1,0-0.1,0-0.1,0c-0.1-0.6-0.1-1.2-0.2-1.7c0,0,0.1,0,0.1,0
			C40.1,95.3,40.2,95.9,40.2,96.5z"/>
		<path class="st136" d="M58.1,58c0-0.1,0.1-0.1,0.1-0.2c0.1,0.5,0.1,1,0.2,1.5c0,0-0.1,0-0.1,0C58.3,58.9,58.2,58.5,58.1,58z"/>
		<path class="st137" d="M13,74.8c0,0,0.1,0.1,0.1,0.1c-0.2,0.3-0.4,0.5-0.7,0.8c0,0-0.1-0.1-0.1-0.1C12.5,75.2,12.7,75,13,74.8z"/>
		<path class="st138" d="M54.6,16.3c-0.1,0-0.2,0.1-0.3,0.1c-0.3-0.1-0.7,0-1-0.2c0.1-0.1,0.2-0.1,0.3-0.1
			C53.9,16.2,54.2,16.2,54.6,16.3z"/>
		<path class="st93" d="M39.9,21.7c0,0,0.1-0.1,0.1-0.1c0.2,0.3,0.1,0.7,0.2,1c-0.1,0.1,0,0.2-0.1,0.3C40.1,22.5,40,22.1,39.9,21.7z
			"/>
		<path class="st139" d="M48.1,4.7c0.1,0,0.2,0,0.4,0c0.4-0.1,0.8,0,1.2,0.1c0,0,0,0.1,0,0.1C49.1,4.9,48.6,4.9,48.1,4.7z"/>
		<path class="st80" d="M37.8,82.9c0,0,0.1,0,0.1,0c0.1,0.2,0.1,0.4,0.1,0.7c-0.1,0.2,0.1,0.4-0.1,0.6
			C37.7,83.7,37.8,83.3,37.8,82.9z"/>
		<path class="st53" d="M27.5,56.6c-0.1,0-0.1,0-0.2,0c0.1-0.4,0.1-0.9,0.2-1.3c0.1,0,0.2,0,0.1,0.2C27.7,55.8,27.6,56.2,27.5,56.6z
			"/>
		<path class="st16" d="M34.7,116.4c-0.1,0-0.1-0.1-0.2-0.1c0.3-0.1,0.6-0.1,0.8-0.4c0.1-0.1,0.2-0.3,0.4,0
			C35.4,116,35.2,116.5,34.7,116.4z"/>
		<path class="st140" d="M24.5,5.4c0-0.1,0-0.1,0-0.2c0.3-0.2,0.7-0.1,1-0.2c0.1,0.1,0.2,0,0.3,0.1C25.3,5.3,24.9,5.3,24.5,5.4z"/>
		<path class="st141" d="M57.7,55.5c0,0,0.1-0.1,0.1-0.1c0.2,0.3,0.2,0.7,0.2,1.1C57.6,56.3,57.8,55.8,57.7,55.5z"/>
		<path class="st142" d="M40.3,101.1c0,0.1-0.1,0.2-0.1,0.3c-0.2-0.3-0.1-0.7-0.1-1.1c0-0.1,0.1-0.2,0.1-0.3
			C40.2,100.4,40.3,100.8,40.3,101.1z"/>
		<path class="st47" d="M33.9,31.6c0,0-0.1-0.1-0.1-0.1c0-0.4-0.6-0.5-0.6-0.9C33.6,30.8,34.2,31,33.9,31.6z"/>
		<path class="st117" d="M28,15.5c-0.1-0.2-0.3-0.1-0.4-0.1c0.4-0.2,0.9-0.1,1.4-0.1c0.1,0,0.1,0.1,0.2,0.1
			C28.7,15.4,28.4,15.5,28,15.5z"/>
		<path class="st143" d="M40.4,24.3c-0.4-0.2-0.2-0.5-0.2-0.8c0-0.1,0.1-0.1,0.1,0C40.5,23.8,40.4,24,40.4,24.3z"/>
		<path class="st144" d="M30.3,79.6c0,0-0.1,0.1-0.1,0.1c-0.2-0.3-0.3-0.6-0.5-0.8c0,0,0.1-0.1,0.1-0.1C30,79,30.2,79.3,30.3,79.6z"
			/>
		<path class="st145" d="M29.4,22.3c0,0-0.1,0-0.1,0c0-0.4,0.2-0.8,0.4-1.1c0,0,0.1,0.1,0.1,0.1C29.6,21.7,29.5,22,29.4,22.3z"/>
		<path class="st143" d="M41.1,80.8c0,0-0.1,0.1-0.1,0.1c-0.2-0.3-0.1-0.7-0.2-1c0-0.1,0.1-0.1,0.1-0.2C41,80.2,41.1,80.5,41.1,80.8
			z"/>
		<path class="st13" d="M40.1,105.3c0,0,0.1,0,0.1,0c0,0.5,0,1,0,1.5c0,0-0.1,0-0.1,0s-0.1,0-0.1,0
			C40.1,106.3,40.1,105.8,40.1,105.3z"/>
		<path class="st13" d="M57.6,69.7c0,0.1-0.1,0.1-0.1,0.2c0-0.4,0-0.9,0-1.3c0,0,0.1-0.1,0.1-0.1C57.6,68.8,57.6,69.3,57.6,69.7z"/>
		<path class="st83" d="M27.1,64.4c0,0.1-0.1,0.1-0.1,0.2c0-0.3-0.1-0.6-0.1-0.9c0-0.1,0.1-0.2,0.1-0.3
			C27.1,63.7,27.1,64.1,27.1,64.4z"/>
		<path class="st40" d="M45.4,98c0-0.1,0-0.1,0-0.2c0.2,0.2,0.4,0.5,0.5,0.8c0.1,0.1,0,0.2-0.1,0.1C45.7,98.6,45.6,98.3,45.4,98z"/>
		<path class="st146" d="M45.9,98.8c0,0,0.1-0.1,0.1-0.1c0.2,0.2,0.4,0.5,0.4,0.8c0,0.1,0,0.2,0,0.4C46.2,99.5,46.1,99.1,45.9,98.8z
			"/>
		<path class="st147" d="M52.5,5.4c0.2,0,0.3,0,0.5,0c0.2,0,0.6-0.1,0.7,0.3C53.2,5.6,52.8,5.6,52.5,5.4z"/>
		<path class="st54" d="M26.9,4.8c0.1,0,0.2,0.1,0.3,0.1c-0.4,0-0.7,0.1-1.1,0.1c0,0-0.1-0.1,0-0.1c0,0,0,0,0,0
			C26.4,4.8,26.6,4.9,26.9,4.8z"/>
		<path class="st103" d="M27.1,61.3c0-0.1-0.1-0.2-0.1-0.3c0.1-0.3,0.1-0.6,0.2-0.8c0.1-0.1,0.1,0,0.2,0
			C27.2,60.5,27.2,60.9,27.1,61.3z"/>
		<path class="st51" d="M28.6,35.5c0,0,0-0.1,0-0.1c0.1,0,0.1,0,0.2-0.1c0.4,0.1,0.7-0.1,1.1,0.1C29.4,35.6,29,35.5,28.6,35.5z"/>
		<path class="st148" d="M45.7,62.7c0.1,0,0.1,0,0.2,0c0.2,0.3,0.3,0.7,0.2,1.1c0,0.1-0.1,0.1-0.1,0C45.9,63.4,45.8,63.1,45.7,62.7z
			"/>
		<path class="st149" d="M59.3,63.5c0-0.1,0.1-0.1,0.1-0.2c0.1,0.3,0.1,0.6,0.2,0.8c0,0-0.1,0.1-0.1,0.1
			C59.3,64.1,59.3,63.8,59.3,63.5z"/>
		<path class="st150" d="M40,94.8c0,0-0.1,0-0.1,0c-0.1-0.3-0.2-0.5-0.3-0.8c0,0,0.1-0.1,0.1-0.1C39.9,94.1,40,94.4,40,94.8z"/>
		<path class="st151" d="M49.8,109.4c0,0-0.1,0.1-0.1,0.1c-0.2-0.2-0.3-0.5-0.5-0.7c0-0.1,0.1-0.1,0.1-0.1
			C49.4,108.9,49.6,109.1,49.8,109.4z"/>
		<path class="st110" d="M31.5,34.6c0,0-0.1-0.1-0.1-0.1c0.2-0.1,0.5-0.2,0.7-0.4c0,0,0.1,0.1,0.1,0.1C32,34.4,31.8,34.5,31.5,34.6z
			"/>
		<path class="st52" d="M17.6,65c0,0-0.1,0-0.1,0c0-0.4,0-0.7,0.2-1.1c0,0,0.1,0.1,0.1,0.1C17.7,64.4,17.6,64.7,17.6,65z"/>
		<path class="st152" d="M27.6,55.4c0-0.1-0.1-0.1-0.1-0.2c0-0.3,0-0.6,0.1-0.8c0,0.1,0,0.3,0.1,0.4C27.7,55.1,27.8,55.3,27.6,55.4z
			"/>
		<path class="st153" d="M40.8,109.6c0,0-0.1,0-0.1,0c0-0.3-0.3-0.6,0-1C40.7,109,40.8,109.3,40.8,109.6z"/>
		<path class="st154" d="M48,83.3c-0.2-0.4-0.2-0.8,0-1.2C48,82.5,48,82.9,48,83.3z"/>
		<path class="st13" d="M46,4.3c-0.1,0.1-0.3,0.1-0.4,0.1c-0.3,0-0.5,0-0.8,0c0,0,0.1-0.1,0.1-0.1C45.3,4.3,45.6,4.3,46,4.3z"/>
		<path class="st85" d="M37.9,72.9c0,0-0.1,0.1-0.1,0.1c-0.2-0.3-0.3-0.6-0.3-1C37.6,72.3,37.7,72.6,37.9,72.9z"/>
		<path class="st155" d="M27.6,74.5c0.1-0.1,0.1-0.3,0.1-0.4c0.2,0.3,0.1,0.6,0.1,0.9c-0.1,0-0.1,0-0.2,0
			C27.6,74.8,27.6,74.6,27.6,74.5z"/>
		<path class="st60" d="M32.7,95.3c0.2,0.1,0.2,0.3,0.2,0.5c0.1,0.2,0.1,0.5,0,0.7c0,0,0,0,0,0C32.7,96.1,32.7,95.7,32.7,95.3z"/>
		<path class="st156" d="M21,66.6c0,0.1,0,0.1,0,0.2c-0.1,0.2-0.2,0.4-0.4,0.5c-0.1,0-0.1-0.1-0.2-0.1C20.6,67,20.8,66.8,21,66.6z"
			/>
		<path class="st39" d="M29.8,35.4c-0.4-0.1-0.7,0.1-1.1-0.1c0.4,0,0.8-0.1,1.2-0.1c0,0.1,0,0.1,0,0.2
			C29.9,35.4,29.8,35.4,29.8,35.4z"/>
		<path class="st13" d="M37.9,84.1c0.1-0.2,0-0.4,0.1-0.6c0,0.3,0,0.6,0.1,0.9c0,0-0.1,0.1-0.1,0.1C37.9,84.4,37.9,84.3,37.9,84.1z"
			/>
		<path class="st16" d="M35.7,115.8c0.3,0.1,0.5-0.2,0.8-0.2C36.3,116.1,36.1,116.1,35.7,115.8z"/>
		<path class="st157" d="M36.3,111c0,0,0.1,0.1,0.1,0.1c-0.1,0.2-0.3,0.3-0.5,0.4c0,0-0.1-0.1-0.1-0.1
			C35.9,111.3,36.1,111.1,36.3,111z"/>
		<path class="st158" d="M30.4,4.6c-0.2,0-0.4,0-0.6,0c-0.2,0-0.4,0.2-0.4-0.1c0.3,0,0.5,0,0.8,0C30.3,4.4,30.4,4.3,30.4,4.6z"/>
		<path class="st159" d="M29.4,4.5c0.1,0.2,0.3,0.1,0.4,0.1c-0.2,0.1-0.5,0.1-0.7,0.1c-0.1,0-0.1-0.1-0.2-0.1
			C29.1,4.5,29.2,4.4,29.4,4.5z"/>
		<path class="st160" d="M32.8,116c0.1,0.2,0.4,0,0.5,0.2c-0.4,0.1-0.7,0.1-0.8-0.4c0,0,0.1,0,0.1,0C32.6,115.9,32.7,116,32.8,116z"
			/>
		<path class="st159" d="M30.4,4.6c-0.1,0-0.2-0.1-0.3-0.1c0.1-0.1,0.3-0.1,0.5-0.1c0.2,0.2,0.4,0.1,0.6,0.1
			C30.9,4.6,30.7,4.6,30.4,4.6z"/>
		<path class="st13" d="M24.7,41.9c0.2,0.2,0.1,0.5,0.1,0.7c0,0.1,0.1,0.3-0.1,0.3c0-0.3-0.1-0.5-0.1-0.8
			C24.6,42,24.6,41.9,24.7,41.9z"/>
		<path class="st66" d="M17.6,17.6c-0.1,0-0.1-0.1-0.2-0.1c0.2,0,0.4-0.1,0.5-0.1c0,0,0.1,0.1,0.1,0.1C18,17.6,17.8,17.6,17.6,17.6z
			"/>
		<path class="st161" d="M49.3,108.7c0,0-0.1,0.1-0.1,0.1c-0.1-0.2-0.2-0.4-0.4-0.7c0.1,0,0.1,0,0.2,0
			C49,108.3,49.1,108.5,49.3,108.7z"/>
		<path class="st49" d="M48.6,15.5c0.1-0.1,0.3-0.1,0.4-0.1c0.2,0,0.3,0,0.5,0c0,0.1,0,0.2-0.2,0.1C49.1,15.5,48.8,15.5,48.6,15.5z"
			/>
		<path class="st162" d="M24.7,42.8c0-0.1,0.1-0.2,0.1-0.3c0.1,0.1,0.1,0.3,0.1,0.4c0,0.1-0.1,0.3-0.1,0.4
			C24.6,43.2,24.6,43,24.7,42.8z"/>
		<path class="st36" d="M15.8,67.4c0,0.1,0,0.2,0,0.3c0,0,0,0,0,0l0,0c-0.3,0.1-0.5,0.1-0.8,0C15.2,67.5,15.6,67.7,15.8,67.4z"/>
		<path class="st141" d="M27.3,60.1c-0.1,0-0.1,0-0.2,0c0-0.3,0-0.6,0.3-0.7C27.4,59.7,27.4,59.9,27.3,60.1z"/>
		<path class="st13" d="M37.3,74.2c0-0.1,0.1-0.2,0.1-0.3c0,0.3,0,0.6,0,0.9c0,0-0.1,0-0.1,0C37.4,74.7,37.3,74.4,37.3,74.2z"/>
		<path class="st13" d="M32.6,94.1C32.7,94.1,32.7,94.1,32.6,94.1c0.2,0.3,0.2,0.6,0.1,0.9c-0.2-0.2-0.1-0.5-0.1-0.8
			C32.6,94.2,32.6,94.1,32.6,94.1z"/>
		<path class="st16" d="M40.3,97.9c-0.2-0.3-0.2-0.6,0-0.9C40.3,97.2,40.3,97.6,40.3,97.9z"/>
		<path class="st54" d="M40.3,23.5c0,0-0.1,0-0.1,0c0-0.2,0-0.4,0-0.6c0-0.1,0.1-0.2,0.1-0.3C40.3,22.9,40.3,23.2,40.3,23.5z"/>
		<path class="st145" d="M29.2,22.3c0,0.3,0,0.7,0,1C29.1,22.9,29,22.6,29.2,22.3z"/>
		<path class="st13" d="M47.5,103.3c0,0.1-0.1,0.2-0.1,0.3c0-0.3,0-0.6,0-0.9c0,0,0.1,0,0.1,0C47.5,102.8,47.5,103,47.5,103.3z"/>
		<path class="st57" d="M15,67.7c0.3,0,0.5,0,0.8,0c-0.3,0.2-0.6,0.1-0.9,0.1C14.9,67.8,14.9,67.7,15,67.7
			C14.9,67.7,15,67.7,15,67.7z"/>
		<path class="st163" d="M48,81.3c0-0.1,0-0.2,0-0.3c0-0.2,0-0.3,0.1-0.5c0.2,0,0.2,0.2,0.1,0.3C48.2,80.9,48.2,81.1,48,81.3z"/>
		<path class="st51" d="M52.1,37.5c0,0.1,0,0.1,0,0.2c-0.1-0.2-0.2-0.4-0.4-0.6c0.1,0,0.1,0,0.2,0C52,37.2,52.1,37.4,52.1,37.5z"/>
		<path class="st164" d="M46,63.8c0,0,0.1,0,0.1,0c0,0.2,0,0.4,0,0.7c0,0-0.1,0-0.1,0C46,64.3,46,64,46,63.8z"/>
		<path class="st13" d="M48.2,79.6c0,0,0.1,0,0.1,0c0,0.2,0,0.4,0,0.7c-0.1,0-0.2,0-0.1-0.1C48.2,80,48.2,79.8,48.2,79.6z"/>
		<path class="st165" d="M32.6,94.1c0,0,0,0.1,0,0.1c-0.2-0.2-0.1-0.5-0.1-0.7C32.7,93.7,32.6,93.9,32.6,94.1z"/>
		<path class="st95" d="M53.6,16.1c-0.1,0-0.2,0.1-0.3,0.1c-0.1,0-0.3,0-0.4,0c0.1,0,0.2-0.1,0.3-0.1C53.3,16.1,53.4,16.1,53.6,16.1
			z"/>
		<path class="st13" d="M13.1,72.4L13.1,72.4c-0.1,0-0.1,0-0.1,0c0-0.2,0-0.4,0-0.7c0,0.1,0.1,0.1,0.1,0.2
			C13.2,72.1,13.1,72.3,13.1,72.4z"/>
		<path class="st13" d="M24.7,41.9c0,0.1-0.1,0.1-0.1,0.2c0-0.1,0-0.3-0.1-0.4c0-0.1,0-0.2,0-0.3c0,0,0.1,0,0.1,0
			C24.6,41.5,24.6,41.7,24.7,41.9z"/>
		<path class="st166" d="M34.1,15c0.1-0.1,0.3-0.1,0.4-0.1c0.1,0,0.2,0,0.3,0C34.6,15,34.3,15,34.1,15z"/>
		<path class="st64" d="M49.3,15.6c0.1,0,0.1-0.1,0.2-0.1c0.2,0,0.3,0,0.5,0.1c-0.1,0-0.2,0-0.3,0.1C49.5,15.7,49.4,15.6,49.3,15.6z
			"/>
		<path class="st167" d="M32.8,89.5c0.2,0.2,0.2,0.4,0,0.7C32.8,89.9,32.8,89.7,32.8,89.5z"/>
		<path class="st13" d="M26.1,5c0,0,0,0.1,0,0.1c-0.1,0-0.3,0-0.4,0c-0.1,0-0.2-0.1-0.3-0.1C25.7,5,25.9,5,26.1,5z"/>
		<path class="st13" d="M28,57.6L28,57.6c-0.1,0-0.1,0-0.1,0c0-0.2,0-0.4,0-0.7C28,57,28,57,28,57.1C28,57.2,28,57.4,28,57.6z"/>
		<path class="st168" d="M48.1,80.1c0,0,0.1,0.1,0.1,0.1c0,0.2,0,0.3-0.1,0.4c0-0.1-0.1-0.2-0.1-0.3C48,80.3,48.1,80.2,48.1,80.1z"
			/>
		<path class="st169" d="M32.9,96.5c0-0.2,0-0.5,0-0.7C33,96,33,96.3,33,96.5C33,96.5,32.9,96.5,32.9,96.5z"/>
		<path class="st170" d="M51,111.7c0-0.2,0-0.5,0-0.7C51.2,111.2,51.1,111.4,51,111.7z"/>
		<path class="st13" d="M65,12.2c-0.5,1.1-0.9,2.2-1.3,3.2c-0.2,0.5,0.3,0.5,0.4,1c-0.7-0.3-1.2-0.5-1.7-0.7c0.9,0.1,1-0.6,1.2-1.1
			c0.3-0.6,0.5-1.3,0.8-1.9c0.2-0.5,0.6-1.1-0.2-1.6c1.3,0.2,1.5,0.4,1.7,1.4c0.2,1.1,0.5,2.2,0.8,3.5c0.4-1,0.8-1.9,1.1-2.7
			c0.2-0.5-0.2-0.6-0.3-0.9c0.5,0.2,1.1,0.5,1.6,0.7c0,0.1,0,0.1,0,0.2c-0.8-0.3-0.9,0.2-1.1,0.7c-0.4,1-0.8,2-1.3,3
			c-0.1,0.2-0.1,0.5-0.3,0.5c-0.3,0-0.3-0.3-0.3-0.5c-0.3-1.3-0.6-2.6-0.8-3.9C65.2,12.8,65.1,12.6,65,12.2z"/>
		<path class="st13" d="M48.7,12.3c-0.6-0.1-1.1-0.1-1.7-0.2c0.5-0.4,0.5-1.4,0.2-1.8c-0.2-0.2-1.5-0.3-1.6,0
			c-0.5,0.7-0.5,1.2,0,1.7c-0.5,0-1.1-0.1-1.6-0.1c0.7-0.3,0.9-0.9,1.1-1.5c0.5-1,1-2,1.5-3c0.1-0.2,0.1-0.4,0.4-0.3
			C47,7,47,7.2,47.1,7.4c0.3,1.2,0.6,2.4,0.9,3.6c0.1,0.5,0.2,0.9,0.7,1.2C48.7,12.2,48.7,12.2,48.7,12.3z"/>
		<path class="st13" d="M24.4,9c0-0.3-0.1-0.6-0.1-0.9c0-0.2,0.1-0.3,0.3-0.3c1.3-0.1,2.6-0.3,3.9-0.6c0.3-0.1,0.4,0.1,0.4,0.3
			c0,0.3,0.3,0.5,0,0.9c-0.3-0.6-0.8-0.8-1.4-0.6C27.2,7.9,27,8,27,8.3c0.2,1.2,0.4,2.3,0.5,3.5c0.1,0.5,0.5,0.3,0.7,0.6
			c-0.7,0.1-1.3,0.2-1.9,0.3c0.6-0.5,0.4-1,0.3-1.6c-0.2-0.8-0.3-1.6-0.4-2.5c0-0.2,0-0.6-0.4-0.6c-0.4,0-0.9,0-1.2,0.4
			c-0.1,0.1-0.1,0.3-0.2,0.5C24.5,9,24.5,9,24.4,9z"/>
		<path class="st171" d="M7.6,13.3c0.6-0.3,1.1-0.5,1.7-0.8c0,0,0.1,0.1,0.1,0.1C8.8,13,9,13.4,9.2,13.9c0.4,0.9,0.8,1.7,1.2,2.6
			c0.2,0.4,0.3,0.8,1,0.5c0,0.1,0,0.1,0,0.2c-0.5,0.3-1.1,0.5-1.6,0.8c0.5-0.7,0-1.2-0.2-1.8c-0.3-0.7-0.7-1.4-0.9-2.1
			c-0.2-0.4-0.4-0.8-1-0.6C7.6,13.4,7.6,13.4,7.6,13.3z"/>
		<path class="st172" d="M46.6,8.3c0.1,0.3,0.2,0.6,0.2,0.8c0,0.2,0.3,0.5,0,0.6c-0.3,0.1-0.6,0-0.9-0.1c-0.1,0-0.1-0.2-0.1-0.3
			c0.2-0.4,0.4-0.7,0.6-1.1C46.5,8.3,46.6,8.3,46.6,8.3z"/>
	</g>
</g>
</svg>
