<svg xmlns="http://www.w3.org/2000/svg" viewBox="0 0 167.37 101"><defs><style>.cls-1{fill:#2e3d61;}</style></defs><title>macaIcon</title><g id="Camada_2" data-name="Camada 2"><g id="Camada_1-2" data-name="Camada 1"><path class="cls-1" d="M17.31,31.74h2.78a77.23,77.23,0,0,0-2.87-17.3,8.65,8.65,0,0,0,.09,17.3Z"/><path class="cls-1" d="M16.9,37.51a10.39,10.39,0,0,1,0,5.78h3.3V37.51Z"/><path class="cls-1" d="M147.17,84.1a10.36,10.36,0,0,1,5.77,0v-35h-.55a15.44,15.44,0,0,1-5.22,8Z"/><path class="cls-1" d="M11.54,40.4a5.77,5.77,0,1,1-5.77-5.77A5.77,5.77,0,0,1,11.54,40.4Z"/><path class="cls-1" d="M26,95.23a5.77,5.77,0,1,1-5.77-5.77A5.77,5.77,0,0,1,26,95.23Z"/><path class="cls-1" d="M17.31,84.1a10.39,10.39,0,0,1,5.78,0V55.68a12.8,12.8,0,0,1-2.74-6.62h-3Z"/><path class="cls-1" d="M152.94,37.51h14.43v5.78H152.94Z"/><path class="cls-1" d="M127.26,56.7l-8.6-7.64H46A13,13,0,0,1,33.19,60.6a12.7,12.7,0,0,1-4.33-.8v6.57H141.4V60a15.17,15.17,0,0,1-3.89.56A15.39,15.39,0,0,1,127.26,56.7Z"/><path class="cls-1" d="M155.83,95.23a5.77,5.77,0,1,1-5.77-5.77A5.77,5.77,0,0,1,155.83,95.23Z"/><path class="cls-1" d="M165.23,17.31a2.14,2.14,0,0,0-2,1.47L160.8,26h-7.86v5.77h14.43V19.46A2.15,2.15,0,0,0,165.23,17.31Z"/><path class="cls-1" d="M56.27,37.51a10.1,10.1,0,0,0-9.09,5.78h65l-3.63-3.23a10.11,10.11,0,0,0-6.71-2.55Z"/><path class="cls-1" d="M40.4,47.61A15.89,15.89,0,0,1,56.27,31.74h45.56a15.88,15.88,0,0,1,10.55,4l18.71,16.64a9.66,9.66,0,0,0,16.08-7.22V14.43H140a38.76,38.76,0,0,1-15-3A148.46,148.46,0,0,0,21.08,7.56,83.13,83.13,0,0,1,26,35.74V47.61a7.22,7.22,0,1,0,14.43,0Z"/><path class="cls-1" d="M28.86,72.14H141.4v5.77H28.86Z"/></g></g></svg>