<svg xmlns="http://www.w3.org/2000/svg" viewBox="0 0 119.08 150"><defs><style>.cls-1{fill:#2e3d61;}.cls-2{fill:#fff;}</style></defs><title>primNE</title><g id="Camada_2" data-name="Camada 2"><g id="Camada_1-2" data-name="Camada 1"><path class="cls-1" d="M76.06,150l-2.59-1.63c-.8-.5-1.63-.93-1.22-2.18.09-.27-.37-.78-.65-1.12a22.68,22.68,0,0,1-2.67-3.35c-.34-.64.16-1.7.22-2.57.07-1.11.69-1.38,1.69-1.38.29,0,.88-.58.83-.72-.71-2.11,1.4-2.65,2.13-3.94A20.57,20.57,0,0,0,75,131a1.06,1.06,0,0,0-.27-1,14.56,14.56,0,0,0-3.21-2.13,17.57,17.57,0,0,0-4.32-1,7.26,7.26,0,0,0-2.78.26c-1.22.36-2,0-2.27-1.2a4.29,4.29,0,0,0-1-1.76c-.61-.69-1.41-1.23-2.07-1.89a2.14,2.14,0,0,0-2.12-.56,5.54,5.54,0,0,1-3.1-.47,29.35,29.35,0,0,1-5-2.93c-1.76-1.3-3.34-1.54-5.08-.28-1.23.9-2.24.06-3.23-.41s-.55-1.29-.22-2c.45-1,.11-1.2-.86-1.49-3.41-1-6.11.08-8.49,2.47a3.82,3.82,0,0,1-.9.65c-1.7.91-3.41,1.8-5.1,2.71a1.75,1.75,0,0,0-.51.47,2.2,2.2,0,0,1-2.22,1.14c-.34-.06-.74.29-1.22.5a14.45,14.45,0,0,0,.9-3.9c-.08-1.52.47-3.2-1.05-4.56-2.35-2.11-2.43-5-.54-7.6.19-.25.31-.89.19-1-1.39-1-.33-1.83.25-2.7a3.7,3.7,0,0,0-.64-.75c-.94-.58-.89-1.19-.4-2.11a1.75,1.75,0,0,0-.39-1.6c-1.42-1.26-1.43-2.64.11-3.8a11.53,11.53,0,0,0,1.13-1.08l-1.35-1-.44-.24a2.7,2.7,0,0,0,.77-.27,11.5,11.5,0,0,0,1-.89,7.66,7.66,0,0,0-1.14-.92c-.83-.44-1.74-.74-2.54-1.24-.2-.12-.2-.8-.08-1.14a4.66,4.66,0,0,1,.88-1.4c1.53-1.77,1.89-4.58,4.69-5.26.38-.1.63-.71,1.21-1.41-1.77-.59-3.27-1-4.71-1.59a3.47,3.47,0,0,1-1.41-1.23c-.57-.82-1-1.75-1.62-2.84a5.09,5.09,0,0,1,.35-.48c.65-.78.55-1.28-.46-1.63a2.31,2.31,0,0,1-1.68-2c-.12-.72-1-1.31-1.59-2l-.4.18c.13-.22.21-.5.4-.63A2.46,2.46,0,0,0,13.47,65c.14-2,.6-2.25,3.32-2.63.12-.87.26-1.73.38-2.6a1.6,1.6,0,0,0-2-1.94,5.78,5.78,0,0,0-.81.24c-2.11.71-2.11.71-3.56-1-.78-.92-1.59-1.83-2.38-2.74-.06-.07-.19-.16-.18-.21.52-1.66-.75-1.9-2.17-2.13,1.55-1,2.33-2,2.23-3.61-.06-1,.63-2,.65-3,0-2-.17-4-.28-6,0-.13-.14-.27-.12-.4.29-1.9-1.12-2.42-2.43-3.05-.42-.21-.77-.57-1.17-.82a3.38,3.38,0,0,0-1.1-.53c-1.25-.21-2.51-.34-3.77-.51L0,33.64c1.68-1.31,3.19-3.19,5.09-3.77,2.65-.81,3.62-2.64,4.63-4.73a2.48,2.48,0,0,1,.69-.68,5,5,0,0,0,1.85-3.15c.15-1,1.09-1.95,1.64-2.94.75-1.37,1.51-2.74,2.16-4.17.14-.31-.2-.84-.33-1.33a3.9,3.9,0,0,0,2.08-3c.2-1,1.07-1.92,1.41-2.95a9,9,0,0,0,0-2.47,16.2,16.2,0,0,0,.86-3.31C20.24-.46,21,0,21.81.28a4.44,4.44,0,0,0,1.71.17c.67-.12.14,1.71,1.18.81.57.63,1.1,1.17,1.58,1.74.15.19.17.48.3.7s.43.56.64.84a5.4,5.4,0,0,0,.85-.8c.33-.48.58-1,.9-1.58L31.9,4.78,31.72,5,34.25,6.1,32,9.22l.84,1,1.77-2.28.75,1.65-.47-.12a20.4,20.4,0,0,0-1.56,2.39A20.51,20.51,0,0,0,32.72,14c-.36,1,.26,2.42-1,3.2-.09.05,0,.49.11.94a29,29,0,0,0,2.8-2.66,5,5,0,0,0,.84-2.15c.34-1.74.87-2.36,2.46-2.52.12,1.63-1.72,1.74-2.3,2.82,1.49.79,2.13.06,3.11-.95.81-.84,2.45-.9,3.74-1.25a4.69,4.69,0,0,1,1.2,0l.25-1.57a12.6,12.6,0,0,1,2.21.58c1.91.85,3.73,1.9,5.67,2.67a23.66,23.66,0,0,0,4,1,17.88,17.88,0,0,0,1.86.19L57,13.31l6,2.39.05-1c1.94-.22,3.86-.4,5.76-.67a9.57,9.57,0,0,1,6.83,1.31c2,1.3,4.24,2.31,6.33,3.52,1.08.63,2,1.65,3.09,2.1,2.37.95,3.59,3.08,5.37,4.64s3.42,3.83,6.08,4.45c.38.09.9.37,1,.67.47,1.45,1.54,1.75,2.86,1.68.13,0,.33,0,.41,0,1.44,1.55,3.29,1.42,5.15,1.3.61,0,1.22.05,1.82,0,5.57-.6,6.69.62,8,5.26.36,1.31.32,2.74.7,4.05a9.57,9.57,0,0,0,1.37,2.24l-.25.51-4.66-.44,0,.27a26.39,26.39,0,0,0,3.51.47,1.35,1.35,0,0,1,1.57,1.35c.16,1.14,0,2.48.59,3.35a3.81,3.81,0,0,1,.55,2.8,2.76,2.76,0,0,1-.53,1c0,.57,0,1,0,1.49,0,.19,0,.38,0,.56a17.65,17.65,0,0,1-2.67,9.89c-.24.36-.13,1-.38,1.3a44.32,44.32,0,0,1-3.62,4.55c-.51.52-1.57.51-2.4.76,1.31,2.07-1,3-2,4.49-.46.63-.94,1.24-1.45,1.82s-.79,1-1.3,1.23a9.33,9.33,0,0,0-5.55,4.94l-1.29-.49-.25.21.9,1.51H97c-.4.87-.85,1.71-1.18,2.6-.19.51-.1,1.13-.3,1.64a32,32,0,0,1-6.65,10.32,6.08,6.08,0,0,1-1.75,1.17c.81-2-1-2.53-2-3.73l-1,2.34-.37-1.4c-.87.85-.87.86.59,2.38-1,1.92-2,3.82-3,5.72l.34.25.67-.37.23,1.86-1.53-1c.57,1.34,1,2.26,1.36,3.24-.39.37-1.13.72-.19,1.43a1.36,1.36,0,0,1,.2,1.15c-1,4.32,0,8.55.79,12.73.3,1.51-.29,2.65-.54,3.92-.59,3-1.48,6-2,9a8.78,8.78,0,0,0,.24,3.74c.3,1.19-.39,1.77-1,2.41C78.69,147.51,77.45,148.65,76.06,150Z"/><path class="cls-2" d="M52.34,51.82h-.16l-9.55,4.82-1.69-7.47,12.77-6.26H61.9V95.09H52.34Z"/><path class="cls-2" d="M78.14,54.27a6.52,6.52,0,0,1-6.79,6.88,6.4,6.4,0,0,1-6.71-6.63,6.56,6.56,0,0,1,6.83-6.88A6.33,6.33,0,0,1,78.14,54.27Zm-9.86.17c0,2.33,1.31,4.13,3.11,4.13s3.07-1.72,3.07-4.22c0-1.84-.94-4.13-3.15-4.13S68.28,52.55,68.28,54.44Z"/></g></g></svg>