<svg xmlns="http://www.w3.org/2000/svg" viewBox="0 0 75.71 115"><defs><style>.cls-1{fill:#fff;}</style></defs><title>iconDesc</title><g id="Camada_2" data-name="Camada 2"><g id="Camada_1-2" data-name="Camada 1"><path class="cls-1" d="M47.43,63.39a1.93,1.93,0,0,1,0,2.71L28.66,84.86A1.92,1.92,0,1,1,26,82.15L44.72,63.39a1.91,1.91,0,0,1,2.71,0Zm-.73,15.7a3.8,3.8,0,1,1-3.8,3.79,3.79,3.79,0,0,1,3.8-3.79Zm13-12.21a0,0,0,0,0,.08,0S59.66,66.84,59.66,66.88ZM31.72,64.12a3.79,3.79,0,1,1-3.79-3.8,3.79,3.79,0,0,1,3.79,3.8Zm-3.79,0a0,0,0,0,0,0,.08A0,0,0,0,0,27.93,64.08Zm47.78,43.25v-61a1.92,1.92,0,1,0-3.83,0v61A3.84,3.84,0,0,1,68,111.17H7.67a3.84,3.84,0,0,1-3.84-3.84V35H7.89a1.92,1.92,0,1,0,0-3.83H3.83V7.67A3.84,3.84,0,0,1,7.67,3.83H18.22a3.78,3.78,0,0,1,3.35,2,18.47,18.47,0,0,0,32.57,0,3.77,3.77,0,0,1,3.34-2H68a3.84,3.84,0,0,1,3.84,3.84V31.15H67.82a1.92,1.92,0,1,0,0,3.83h6a1.92,1.92,0,0,0,1.92-1.92V7.67A7.68,7.68,0,0,0,68,0H57.48a7.6,7.6,0,0,0-6.73,4A14.63,14.63,0,0,1,25,4a7.58,7.58,0,0,0-6.73-4H7.67A7.68,7.68,0,0,0,0,7.67v99.66A7.68,7.68,0,0,0,7.67,115H68A7.68,7.68,0,0,0,75.71,107.33ZM53.33,35a1.92,1.92,0,1,0,0-3.83h-7.5a1.92,1.92,0,0,0,0,3.83ZM31.79,33.06a1.91,1.91,0,0,0-1.91-1.91H22.37a1.92,1.92,0,0,0,0,3.83h7.51A1.92,1.92,0,0,0,31.79,33.06Z"/></g></g></svg>