<svg xmlns="http://www.w3.org/2000/svg" viewBox="0 0 115 115"><defs><style>.cls-1{fill:#fff;}</style></defs><title>iconMatr</title><g id="Camada_2" data-name="Camada 2"><g id="Camada_1-2" data-name="Camada 1"><path class="cls-1" d="M115,86.25V32.58A9.59,9.59,0,0,0,105.42,23H84.33V0H80.5V44.08A1.92,1.92,0,0,0,82.42,46h6.49L57.5,64.85,26.09,46h6.49a1.92,1.92,0,0,0,1.92-1.92V0H30.67V23H9.58A9.59,9.59,0,0,0,0,32.58V86.25a9.59,9.59,0,0,0,9.58,9.58H41l-3.83,7.67H1.92A1.92,1.92,0,0,0,0,105.42C0,115,10.1,115,13.42,115h88.16c3.32,0,13.42,0,13.42-9.58a1.92,1.92,0,0,0-1.92-1.92H77.85L74,95.83h31.4A9.59,9.59,0,0,0,115,86.25ZM30.67,42.17H19.17a1.92,1.92,0,0,0-1,3.56l38.33,23a2,2,0,0,0,2,0l38.33-23a1.92,1.92,0,0,0-1-3.56H84.33V34.5H103.5v46h-92v-46H30.67Zm80.26,65.16c-.66,2.36-3,3.84-9.35,3.84H13.42c-6.37,0-8.69-1.48-9.35-3.84Zm-69.5-3.83,3.84-7.67H69.73l3.84,7.67ZM9.58,92a5.75,5.75,0,0,1-5.75-5.75V32.58a5.76,5.76,0,0,1,5.75-5.75H30.67v3.84H9.58a1.9,1.9,0,0,0-1.91,1.91V82.42a1.9,1.9,0,0,0,1.91,1.91h95.84a1.9,1.9,0,0,0,1.91-1.91V32.58a1.9,1.9,0,0,0-1.91-1.91H84.33V26.83h21.09a5.76,5.76,0,0,1,5.75,5.75V86.25A5.75,5.75,0,0,1,105.42,92Z"/><path class="cls-1" d="M65.86,28.84a13.32,13.32,0,0,0,5.06-9.67c0-12.68-7.3-15.34-13.42-15.34S44.08,6.49,44.08,19.17a13.32,13.32,0,0,0,5.06,9.67,10.13,10.13,0,0,0-8.89,10.07V46h3.83V38.91a6.34,6.34,0,0,1,6.33-6.33H64.59a6.34,6.34,0,0,1,6.33,6.33V46h3.83V38.91A10.12,10.12,0,0,0,65.86,28.84ZM48,17.14c.52-6.43,3.54-9.47,9.48-9.47,5.44,0,8.43,2.57,9.29,7.94L60.4,11.77a1.92,1.92,0,0,0-2.63.66,1.84,1.84,0,0,0-.17.38C56.63,15.72,51.39,16.82,48,17.14ZM57.5,28.75A12.09,12.09,0,0,1,48.18,21h0c3.28-.27,9.2-1.27,12-4.9L67,20.19C66.22,24.89,60.44,28.75,57.5,28.75Z"/><polygon class="cls-1" points="95.83 69 95.83 65.17 92 65.17 92 69 88.17 69 88.17 72.83 92 72.83 92 76.67 95.83 76.67 95.83 72.83 99.67 72.83 99.67 69 95.83 69"/></g></g></svg>