<svg xmlns="http://www.w3.org/2000/svg" viewBox="0 0 115 92.74"><defs><style>.cls-1{fill:#fff;}</style></defs><title>iconCursoTec</title><g id="Camada_2" data-name="Camada 2"><g id="Camada_1-2" data-name="Camada 1"><path class="cls-1" d="M109.44,0H5.56A5.56,5.56,0,0,0,0,5.56V68.63a5.56,5.56,0,0,0,5.56,5.56H43.91l-2.65,9.28H33.39a1.85,1.85,0,0,0-1.86,1.85V89H16.69a1.86,1.86,0,0,0,0,3.71H98.31a1.86,1.86,0,0,0,0-3.71H83.47V85.32a1.85,1.85,0,0,0-1.86-1.85H73.74l-2.65-9.28h38.35A5.56,5.56,0,0,0,115,68.63V5.56A5.56,5.56,0,0,0,109.44,0ZM79.76,87.18V89H35.24V87.18ZM45.12,83.47l2.65-9.28H67.23l2.65,9.28Zm66.17-14.84a1.85,1.85,0,0,1-1.85,1.85H5.56a1.85,1.85,0,0,1-1.85-1.85V64.92H111.29Zm0-7.42H3.71V5.56A1.85,1.85,0,0,1,5.56,3.71H109.44a1.85,1.85,0,0,1,1.85,1.85Z"/><path class="cls-1" d="M87.18,33.71v-9.6a1.86,1.86,0,0,0-1.07-1.68l-27.83-13a1.85,1.85,0,0,0-1.56,0l-27.83,13A1.86,1.86,0,0,0,28,24.9a1.83,1.83,0,0,0,.89.89L39,30.49V51.94a1.85,1.85,0,0,0,1.86,1.85H74.19a1.85,1.85,0,0,0,1.86-1.85V30.49L83.47,27v6.69a5.56,5.56,0,1,0,3.71,0ZM72.34,50.08H42.66V32.22l14.06,6.56a1.85,1.85,0,0,0,1.56,0l14.06-6.56Zm-14.84-15L34.06,24.11,57.5,13.18,80.94,24.11Zm27.82,5.76A1.86,1.86,0,1,1,87.18,39,1.85,1.85,0,0,1,85.32,40.81Z"/></g></g></svg>