<svg xmlns="http://www.w3.org/2000/svg" viewBox="0 0 115 103.89"><defs><style>.cls-1{fill:#fff;}</style></defs><title>iconLoja</title><g id="Camada_2" data-name="Camada 2"><g id="Camada_1-2" data-name="Camada 1"><path class="cls-1" d="M111.06,0H3.94A4,4,0,0,0,0,3.94v72.7a4,4,0,0,0,3.94,3.94H26.08l.45,2.11a5.69,5.69,0,0,0,4.53,4.36,11.23,11.23,0,0,0-1.43,5.5,11.34,11.34,0,1,0,21.3-5.42h9.42a11.35,11.35,0,1,0,19.91,0,5.64,5.64,0,0,0,4.93-4.41l12.25-57h14.19v51a.57.57,0,0,1-.57.56H92.68a1.69,1.69,0,0,0,0,3.38h18.38A4,4,0,0,0,115,76.64V3.94A4,4,0,0,0,111.06,0ZM41,100.52a8,8,0,1,1,8-8,8,8,0,0,1-8,8Zm29.34,0a8,8,0,1,1,8-8,8,8,0,0,1-8,8Zm36.52-78.25A5.62,5.62,0,0,0,103,12.49h-5.3a11.17,11.17,0,0,0-10.86,8.77l-.22,1H70.73a1.69,1.69,0,1,0,0,3.38H85.94l-1.71,8H23a5.63,5.63,0,0,0-5.5,6.81l4.16,19.36a1.69,1.69,0,1,0,3.3-.71L20.75,39.72A2.24,2.24,0,0,1,23,37H85.59a1.69,1.69,0,0,0,1.65-1.34L90.18,22a7.77,7.77,0,0,1,7.56-6.11H103a2.25,2.25,0,0,1,0,4.5h-5.3a3.26,3.26,0,0,0-3.16,2.55L81.89,82a2.27,2.27,0,0,1-2.2,1.78H77.47a11.31,11.31,0,0,0-14.31,0h-15a11.33,11.33,0,0,0-14.32,0H32A2.27,2.27,0,0,1,29.83,82L26.37,65.86a1.69,1.69,0,0,0-3.3.71L25.35,77.2H3.94a.56.56,0,0,1-.56-.56v-51H62.92a1.69,1.69,0,0,0,0-3.38H3.38V3.94a.57.57,0,0,1,.56-.57H111.06a.58.58,0,0,1,.57.57V22.27Z"/><circle class="cls-1" cx="12.47" cy="12.76" r="3.29"/><circle class="cls-1" cx="22.48" cy="12.76" r="3.29"/><circle class="cls-1" cx="32.49" cy="12.76" r="3.29"/><path class="cls-1" d="M60.6,69.67H50.68A1.7,1.7,0,0,0,49,71.5l.51,6.21a1.68,1.68,0,0,0,1.68,1.55h8.9a1.68,1.68,0,0,0,1.68-1.55l.52-6.21a1.75,1.75,0,0,0-.44-1.28A1.69,1.69,0,0,0,60.6,69.67Zm-2.06,6.21H52.75l-.24-2.83h6.26Z"/><path class="cls-1" d="M27.51,49.75a1.68,1.68,0,0,0,1.65,1.33H41a1.69,1.69,0,0,0,1.68-1.82L42.14,43a1.68,1.68,0,0,0-1.68-1.54H27.82a1.68,1.68,0,0,0-1.64,2ZM38.9,44.87l.24,2.84H30.52l-.61-2.84Z"/><path class="cls-1" d="M33.88,69.67a1.69,1.69,0,0,0-1.65,2l1.33,6.22a1.7,1.7,0,0,0,1.65,1.33h8.08A1.7,1.7,0,0,0,45,77.43l-.51-6.21a1.69,1.69,0,0,0-1.68-1.55Zm2.7,6.21L36,73.05h5.25l.24,2.83Z"/><path class="cls-1" d="M30.85,55.58a1.67,1.67,0,0,0-1.31.63,1.69,1.69,0,0,0-.34,1.42l1.34,6.21a1.67,1.67,0,0,0,1.65,1.33h9.94a1.71,1.71,0,0,0,1.24-.54,1.68,1.68,0,0,0,.44-1.28l-.51-6.22a1.69,1.69,0,0,0-1.68-1.55Zm2.7,6.22L32.94,59h7.12l.24,2.84Z"/><path class="cls-1" d="M47.19,49.53a1.68,1.68,0,0,0,1.68,1.55H62.41a1.68,1.68,0,0,0,1.68-1.55l.52-6.21a1.7,1.7,0,0,0-1.69-1.82H48.36a1.69,1.69,0,0,0-1.68,1.82Zm13.9-4.66-.23,2.84H50.42l-.23-2.84Z"/><path class="cls-1" d="M69.15,65.17H79.54a1.69,1.69,0,0,0,1.65-1.33l1.33-6.21a1.69,1.69,0,0,0-.34-1.42,1.67,1.67,0,0,0-1.31-.63H69.67A1.7,1.7,0,0,0,68,57.13l-.51,6.22a1.68,1.68,0,0,0,.44,1.28,1.71,1.71,0,0,0,1.24.54ZM71.22,59h7.56l-.61,2.84H71Z"/><path class="cls-1" d="M70.31,51.08H82.56a1.67,1.67,0,0,0,1.65-1.33l1.34-6.21a1.7,1.7,0,0,0-1.65-2H70.83A1.7,1.7,0,0,0,69.14,43l-.51,6.22a1.7,1.7,0,0,0,1.68,1.82Zm2.07-6.21h9.43l-.61,2.84h-9Z"/><path class="cls-1" d="M61.76,55.58H49.52a1.7,1.7,0,0,0-1.68,1.83l.51,6.21A1.68,1.68,0,0,0,50,65.17H61.25a1.68,1.68,0,0,0,1.68-1.55l.52-6.21A1.71,1.71,0,0,0,63,56.13,1.65,1.65,0,0,0,61.76,55.58ZM59.7,61.8H51.59L51.35,59h8.58Z"/><path class="cls-1" d="M68,79.26h8.52a1.7,1.7,0,0,0,1.65-1.33l1.33-6.22a1.66,1.66,0,0,0-.33-1.41,1.69,1.69,0,0,0-1.32-.63H68.51a1.7,1.7,0,0,0-1.69,1.55l-.51,6.21A1.7,1.7,0,0,0,68,79.26Zm2.07-6.21h5.7l-.61,2.83H69.83Z"/><path class="cls-1" d="M41,89.65a2.9,2.9,0,1,0,2.9,2.9A2.9,2.9,0,0,0,41,89.65Z"/><path class="cls-1" d="M70.31,89.65a2.9,2.9,0,1,0,2.9,2.9A2.89,2.89,0,0,0,70.31,89.65Z"/></g></g></svg>