<svg id="Camada_1" data-name="Camada 1" xmlns="http://www.w3.org/2000/svg" viewBox="0 0 512 512"><defs><style>.cls-1{fill:#fff;}</style></defs><title>portal</title><path class="cls-1" d="M292.39,70.94c.08-35.68-18.42-45.74-50-37.93C209,41.24,176,50.61,142.8,59.49,64.57,80.43,64.57,80.43,64.56,162.79c0,87.16,0,174.33,0,255.64-18.32,10.37-44.47,3.94-62.42,8.21v51H292.27C292.27,339.2,292.09,205.07,292.39,70.94ZM240.46,291.45a20.73,20.73,0,1,1,20.72-20.73A20.73,20.73,0,0,1,240.46,291.45Z"/><path class="cls-1" d="M509.87,425.66c-13.68-.81-28.76.79-46.58.79V205c0-125.42-1.63-127-127.93-119.49-3,.18-5.83,3.09-9.73,5.28v46.07l82,7V481.13c36.7,0,69.8,1.05,102.24-.5Z"/></svg>