<?xml version="1.0" encoding="utf-8"?>
<!-- Generator: Adobe Illustrator 23.0.1, SVG Export Plug-In . SVG Version: 6.00 Build 0)  -->
<svg version="1.1" id="Camada_1" xmlns="http://www.w3.org/2000/svg" xmlns:xlink="http://www.w3.org/1999/xlink" x="0px" y="0px"
	 viewBox="0 0 512 512" style="enable-background:new 0 0 512 512;" xml:space="preserve">
<style type="text/css">
	.st0{fill:#FFFFFF;}
</style>
<path class="st0" d="M256,0C115.4,0,0,115.4,0,256s115.4,256,256,256s256-115.4,256-256S396.6,0,256,0z M350.8,380.8
	c-68.1-29.5-142.7-38.2-215.8-25.2l-5.3-29.5c78.9-14.1,159.5-4.7,233,27.2L350.8,380.8z M396.1,302.5
	c-88.9-40.9-190.6-52.8-286.4-33.7l-6.5-29.3l0.8-0.1c101.9-20.3,210.1-7.6,304.7,35.9L396.1,302.5z M421.7,215.4
	c-98.7-42.5-211.3-55.7-317.4-37.1l-5.2-29.6c111.7-19.6,230.4-5.6,334.5,39.2L421.7,215.4z"/>
</svg>
