<?xml version="1.0" encoding="utf-8"?>
<!-- Generator: Adobe Illustrator 23.0.1, SVG Export Plug-In . SVG Version: 6.00 Build 0)  -->
<svg version="1.1" id="Capa_1" xmlns="http://www.w3.org/2000/svg" xmlns:xlink="http://www.w3.org/1999/xlink" x="0px" y="0px"
	 viewBox="0 0 512 512" style="enable-background:new 0 0 512 512;" xml:space="preserve">
<style type="text/css">
	.st0{fill:#FFFFFF;}
</style>
<g>
	<circle class="st0" cx="256" cy="85" r="85"/>
	<path class="st0" d="M318.5,181.5C300.5,193.2,279,200,256,200s-44.5-6.8-62.5-18.5c-19.9,7.6-38.3,18.8-54.4,33.2L256,258.5
		l116.8-43.8C356.8,200.3,338.4,189.1,318.5,181.5L318.5,181.5z"/>
	<path class="st0" d="M436,310h-10c-8.3,0-15,6.7-15,15v40c0,8.3,6.7,15,15,15h10c19.3,0,35-15.7,35-35S455.3,310,436,310z"/>
	<path class="st0" d="M87.5,234.3c-4,2.8-6.5,7.4-6.5,12.3V280h5c24.8,0,45,20.2,45,45v40c0,24.8-20.2,45-45,45h-5v31.6
		c0,6.3,3.9,11.9,9.7,14L241,512V285l-139.7-52.4C96.7,230.8,91.5,231.5,87.5,234.3L87.5,234.3z"/>
	<path class="st0" d="M381,365v-40c0-24.8,20.2-45,45-45h5v-33.4c0-4.9-2.4-9.5-6.5-12.3c-4-2.8-9.2-3.4-13.8-1.7L271,285v227
		l150.3-56.4c5.9-2.2,9.7-7.8,9.7-14V410h-5C401.2,410,381,389.8,381,365L381,365z"/>
	<path class="st0" d="M101,365v-40c0-8.3-6.7-15-15-15H76c-19.3,0-35,15.7-35,35s15.7,35,35,35h10C94.3,380,101,373.3,101,365z"/>
</g>
</svg>
